<?xml version="1.0" encoding="UTF-8" standalone="no"?>
<!DOCTYPE svg PUBLIC "-//W3C//DTD SVG 1.1//EN"
 "http://www.w3.org/Graphics/SVG/1.1/DTD/svg11.dtd">
<!-- Generated by graphviz version 2.40.1 (20161225.0304)
 -->
<!-- Title: dependencies Pages: 1 -->
<svg width="1132pt" height="211pt"
 viewBox="0.00 0.00 1132.00 211.00" xmlns="http://www.w3.org/2000/svg" xmlns:xlink="http://www.w3.org/1999/xlink">
<g id="graph0" class="graph" transform="scale(1 1) rotate(0) translate(4 207)">
<title>dependencies</title>
<polygon fill="#ffffff" stroke="transparent" points="-4,4 -4,-207 1128,-207 1128,4 -4,4"/>
<text text-anchor="start" x="541.0091" y="-42.4" font-family="sans-serif" font-weight="bold" font-size="14.00" fill="#000000">Legend</text>
<polygon fill="#ffffb3" stroke="transparent" points="328,-10 328,-30 348,-30 348,-10 328,-10"/>
<text text-anchor="start" x="351.629" y="-15.4" font-family="sans-serif" font-size="14.00" fill="#000000"> &#160;Declarations</text>
<polygon fill="#8dd3c7" stroke="transparent" points="441,-10 441,-30 461,-30 461,-10 441,-10"/>
<text text-anchor="start" x="464.7251" y="-15.4" font-family="sans-serif" font-size="14.00" fill="#000000"> &#160;Module</text>
<polygon fill="#80b1d3" stroke="transparent" points="527,-10 527,-30 547,-30 547,-10 527,-10"/>
<text text-anchor="start" x="550.7812" y="-15.4" font-family="sans-serif" font-size="14.00" fill="#000000"> &#160;Bootstrap</text>
<polygon fill="#fdb462" stroke="transparent" points="624,-10 624,-30 644,-30 644,-10 624,-10"/>
<text text-anchor="start" x="647.6732" y="-15.4" font-family="sans-serif" font-size="14.00" fill="#000000"> &#160;Providers</text>
<polygon fill="#fb8072" stroke="transparent" points="720,-10 720,-30 740,-30 740,-10 720,-10"/>
<text text-anchor="start" x="743.7258" y="-15.4" font-family="sans-serif" font-size="14.00" fill="#000000"> &#160;Exports</text>
<g id="clust1" class="cluster">
<title>cluster_ClientModule</title>
<polygon fill="none" stroke="#000000" stroke-dasharray="1,5" points="8,-70 8,-195 1116,-195 1116,-70 8,-70"/>
</g>
<g id="clust2" class="cluster">
<title>cluster_ClientModule_declarations</title>
<polygon fill="none" stroke="#000000" points="310,-78 310,-130 1108,-130 1108,-78 310,-78"/>
</g>
<g id="clust8" class="cluster">
<title>cluster_ClientModule_imports</title>
<polygon fill="none" stroke="#000000" points="168,-78 168,-130 302,-130 302,-78 168,-78"/>
</g>
<g id="clust11" class="cluster">
<title>cluster_ClientModule_providers</title>
<polygon fill="none" stroke="#000000" points="16,-78 16,-130 160,-130 160,-78 16,-78"/>
</g>
<!-- ClientComponent -->
<g id="node1" class="node">
<title>ClientComponent</title>
<polygon fill="#ffffb3" stroke="#000000" points="1099.5563,-122 984.4437,-122 984.4437,-86 1099.5563,-86 1099.5563,-122"/>
<text text-anchor="middle" x="1042" y="-99.8" font-family="Times,serif" font-size="14.00" fill="#000000">ClientComponent</text>
</g>
<!-- ClientModule -->
<g id="node6" class="node">
<title>ClientModule</title>
<polygon fill="#8dd3c7" stroke="#000000" points="597.7731,-187 594.7731,-191 573.7731,-191 570.7731,-187 504.2269,-187 504.2269,-151 597.7731,-151 597.7731,-187"/>
<text text-anchor="middle" x="551" y="-164.8" font-family="Times,serif" font-size="14.00" fill="#000000">ClientModule</text>
</g>
<!-- ClientComponent&#45;&gt;ClientModule -->
<g id="edge1" class="edge">
<title>ClientComponent&#45;&gt;ClientModule</title>
<path fill="none" stroke="#000000" d="M1042,-122.2921C1042,-144.2057 1042,-178 1042,-178 1042,-178 608.0791,-178 608.0791,-178"/>
<polygon fill="#000000" stroke="#000000" points="608.0792,-174.5001 598.0791,-178 608.0791,-181.5001 608.0792,-174.5001"/>
</g>
<!-- ClientDetailComponent -->
<g id="node2" class="node">
<title>ClientDetailComponent</title>
<polygon fill="#ffffb3" stroke="#000000" points="965.7632,-122 816.2368,-122 816.2368,-86 965.7632,-86 965.7632,-122"/>
<text text-anchor="middle" x="891" y="-99.8" font-family="Times,serif" font-size="14.00" fill="#000000">ClientDetailComponent</text>
</g>
<!-- ClientDetailComponent&#45;&gt;ClientModule -->
<g id="edge2" class="edge">
<title>ClientDetailComponent&#45;&gt;ClientModule</title>
<path fill="none" stroke="#000000" d="M891,-122.1061C891,-141.3391 891,-169 891,-169 891,-169 607.9186,-169 607.9186,-169"/>
<polygon fill="#000000" stroke="#000000" points="607.9186,-165.5001 597.9186,-169 607.9185,-172.5001 607.9186,-165.5001"/>
</g>
<!-- ClientUpdateComponent -->
<g id="node3" class="node">
<title>ClientUpdateComponent</title>
<polygon fill="#ffffb3" stroke="#000000" points="797.9818,-122 642.0182,-122 642.0182,-86 797.9818,-86 797.9818,-122"/>
<text text-anchor="middle" x="720" y="-99.8" font-family="Times,serif" font-size="14.00" fill="#000000">ClientUpdateComponent</text>
</g>
<!-- ClientUpdateComponent&#45;&gt;ClientModule -->
<g id="edge3" class="edge">
<title>ClientUpdateComponent&#45;&gt;ClientModule</title>
<path fill="none" stroke="#000000" d="M720,-122.027C720,-138.3976 720,-160 720,-160 720,-160 608.0759,-160 608.0759,-160"/>
<polygon fill="#000000" stroke="#000000" points="608.076,-156.5001 598.0759,-160 608.0759,-163.5001 608.076,-156.5001"/>
</g>
<!-- ClientsAddComponent -->
<g id="node4" class="node">
<title>ClientsAddComponent</title>
<polygon fill="#ffffb3" stroke="#000000" points="623.6066,-122 478.3934,-122 478.3934,-86 623.6066,-86 623.6066,-122"/>
<text text-anchor="middle" x="551" y="-99.8" font-family="Times,serif" font-size="14.00" fill="#000000">ClientsAddComponent</text>
</g>
<!-- ClientsAddComponent&#45;&gt;ClientModule -->
<g id="edge4" class="edge">
<title>ClientsAddComponent&#45;&gt;ClientModule</title>
<path fill="none" stroke="#000000" d="M551,-122.1061C551,-122.1061 551,-140.991 551,-140.991"/>
<polygon fill="#000000" stroke="#000000" points="547.5001,-140.9909 551,-150.991 554.5001,-140.991 547.5001,-140.9909"/>
</g>
<!-- ClientsListComponent -->
<g id="node5" class="node">
<title>ClientsListComponent</title>
<polygon fill="#ffffb3" stroke="#000000" points="460.2786,-122 317.7214,-122 317.7214,-86 460.2786,-86 460.2786,-122"/>
<text text-anchor="middle" x="389" y="-99.8" font-family="Times,serif" font-size="14.00" fill="#000000">ClientsListComponent</text>
</g>
<!-- ClientsListComponent&#45;&gt;ClientModule -->
<g id="edge5" class="edge">
<title>ClientsListComponent&#45;&gt;ClientModule</title>
<path fill="none" stroke="#000000" d="M389,-122.027C389,-138.3976 389,-160 389,-160 389,-160 494.1429,-160 494.1429,-160"/>
<polygon fill="#000000" stroke="#000000" points="494.1429,-163.5001 504.1429,-160 494.1429,-156.5001 494.1429,-163.5001"/>
</g>
<!-- DirectivesModule -->
<g id="node7" class="node">
<title>DirectivesModule</title>
<polygon fill="#8dd3c7" stroke="#000000" points="293.5772,-122 290.5772,-126 269.5772,-126 266.5772,-122 176.4228,-122 176.4228,-86 293.5772,-86 293.5772,-122"/>
<text text-anchor="middle" x="235" y="-99.8" font-family="Times,serif" font-size="14.00" fill="#000000">DirectivesModule</text>
</g>
<!-- DirectivesModule&#45;&gt;ClientModule -->
<g id="edge6" class="edge">
<title>DirectivesModule&#45;&gt;ClientModule</title>
<path fill="none" stroke="#000000" d="M235,-122.1061C235,-141.3391 235,-169 235,-169 235,-169 494.0328,-169 494.0328,-169"/>
<polygon fill="#000000" stroke="#000000" points="494.0329,-172.5001 504.0328,-169 494.0328,-165.5001 494.0329,-172.5001"/>
</g>
<!-- ClientService -->
<g id="node8" class="node">
<title>ClientService</title>
<ellipse fill="#fdb462" stroke="#000000" cx="88" cy="-104" rx="63.6967" ry="18"/>
<text text-anchor="middle" x="88" y="-99.8" font-family="Times,serif" font-size="14.00" fill="#000000">ClientService</text>
</g>
<!-- ClientService&#45;&gt;ClientModule -->
<g id="edge7" class="edge">
<title>ClientService&#45;&gt;ClientModule</title>
<path fill="none" stroke="#000000" d="M88,-122.2921C88,-144.2057 88,-178 88,-178 88,-178 494.0571,-178 494.0571,-178"/>
<polygon fill="#000000" stroke="#000000" points="494.0572,-181.5001 504.0571,-178 494.0571,-174.5001 494.0572,-181.5001"/>
</g>
</g>
</svg>
