<?xml version="1.0" encoding="UTF-8" standalone="no"?>
<!DOCTYPE svg PUBLIC "-//W3C//DTD SVG 1.1//EN"
 "http://www.w3.org/Graphics/SVG/1.1/DTD/svg11.dtd">
<!-- Generated by graphviz version 2.40.1 (20161225.0304)
 -->
<!-- Title: dependencies Pages: 1 -->
<svg width="2110pt" height="284pt"
 viewBox="0.00 0.00 2110.00 284.00" xmlns="http://www.w3.org/2000/svg" xmlns:xlink="http://www.w3.org/1999/xlink">
<g id="graph0" class="graph" transform="scale(1 1) rotate(0) translate(4 280)">
<title>dependencies</title>
<polygon fill="#ffffff" stroke="transparent" points="-4,4 -4,-280 2106,-280 2106,4 -4,4"/>
<text text-anchor="start" x="1030.0091" y="-42.4" font-family="sans-serif" font-weight="bold" font-size="14.00" fill="#000000">Legend</text>
<polygon fill="#ffffb3" stroke="transparent" points="817,-10 817,-30 837,-30 837,-10 817,-10"/>
<text text-anchor="start" x="840.629" y="-15.4" font-family="sans-serif" font-size="14.00" fill="#000000"> &#160;Declarations</text>
<polygon fill="#8dd3c7" stroke="transparent" points="930,-10 930,-30 950,-30 950,-10 930,-10"/>
<text text-anchor="start" x="953.7251" y="-15.4" font-family="sans-serif" font-size="14.00" fill="#000000"> &#160;Module</text>
<polygon fill="#80b1d3" stroke="transparent" points="1016,-10 1016,-30 1036,-30 1036,-10 1016,-10"/>
<text text-anchor="start" x="1039.7812" y="-15.4" font-family="sans-serif" font-size="14.00" fill="#000000"> &#160;Bootstrap</text>
<polygon fill="#fdb462" stroke="transparent" points="1113,-10 1113,-30 1133,-30 1133,-10 1113,-10"/>
<text text-anchor="start" x="1136.6732" y="-15.4" font-family="sans-serif" font-size="14.00" fill="#000000"> &#160;Providers</text>
<polygon fill="#fb8072" stroke="transparent" points="1209,-10 1209,-30 1229,-30 1229,-10 1209,-10"/>
<text text-anchor="start" x="1232.7258" y="-15.4" font-family="sans-serif" font-size="14.00" fill="#000000"> &#160;Exports</text>
<g id="clust1" class="cluster">
<title>cluster_SharedModule</title>
<polygon fill="none" stroke="#000000" stroke-dasharray="1,5" points="8,-70 8,-268 2094,-268 2094,-70 8,-70"/>
</g>
<g id="clust2" class="cluster">
<title>cluster_SharedModule_declarations</title>
<polygon fill="none" stroke="#000000" points="1020,-78 1020,-130 2086,-130 2086,-78 1020,-78"/>
</g>
<g id="clust11" class="cluster">
<title>cluster_SharedModule_exports</title>
<polygon fill="none" stroke="#000000" points="826,-208 826,-260 1354,-260 1354,-208 826,-208"/>
</g>
<g id="clust13" class="cluster">
<title>cluster_SharedModule_providers</title>
<polygon fill="none" stroke="#000000" points="16,-78 16,-130 1012,-130 1012,-78 16,-78"/>
</g>
<!-- CategoryComponent -->
<g id="node1" class="node">
<title>CategoryComponent</title>
<polygon fill="#ffffb3" stroke="#000000" points="2078.1499,-122 1945.8501,-122 1945.8501,-86 2078.1499,-86 2078.1499,-122"/>
<text text-anchor="middle" x="2012" y="-99.8" font-family="Times,serif" font-size="14.00" fill="#000000">CategoryComponent</text>
</g>
<!-- SharedModule -->
<g id="node8" class="node">
<title>SharedModule</title>
<polygon fill="#8dd3c7" stroke="#000000" points="1134.4231,-187 1131.4231,-191 1110.4231,-191 1107.4231,-187 1035.5769,-187 1035.5769,-151 1134.4231,-151 1134.4231,-187"/>
<text text-anchor="middle" x="1085" y="-164.8" font-family="Times,serif" font-size="14.00" fill="#000000">SharedModule</text>
</g>
<!-- CategoryComponent&#45;&gt;SharedModule -->
<g id="edge1" class="edge">
<title>CategoryComponent&#45;&gt;SharedModule</title>
<path fill="none" stroke="#000000" d="M2012,-122.2921C2012,-144.2057 2012,-178 2012,-178 2012,-178 1144.5118,-178 1144.5118,-178"/>
<polygon fill="#000000" stroke="#000000" points="1144.5119,-174.5001 1134.5118,-178 1144.5118,-181.5001 1144.5119,-174.5001"/>
</g>
<!-- FormComponent -->
<g id="node2" class="node">
<title>FormComponent</title>
<polygon fill="#ffffb3" stroke="#000000" points="1927.6667,-122 1816.3333,-122 1816.3333,-86 1927.6667,-86 1927.6667,-122"/>
<text text-anchor="middle" x="1872" y="-99.8" font-family="Times,serif" font-size="14.00" fill="#000000">FormComponent</text>
</g>
<!-- FormComponent&#45;&gt;SharedModule -->
<g id="edge2" class="edge">
<title>FormComponent&#45;&gt;SharedModule</title>
<path fill="none" stroke="#000000" d="M1872,-122.0267C1872,-142.7672 1872,-174 1872,-174 1872,-174 1144.2304,-174 1144.2304,-174"/>
<polygon fill="#000000" stroke="#000000" points="1144.2304,-170.5001 1134.2304,-174 1144.2303,-177.5001 1144.2304,-170.5001"/>
</g>
<!-- ImageViewComponent -->
<g id="node3" class="node">
<title>ImageViewComponent</title>
<polygon fill="#ffffb3" stroke="#000000" points="1798.1317,-122 1651.8683,-122 1651.8683,-86 1798.1317,-86 1798.1317,-122"/>
<text text-anchor="middle" x="1725" y="-99.8" font-family="Times,serif" font-size="14.00" fill="#000000">ImageViewComponent</text>
</g>
<!-- ImageViewComponent&#45;&gt;SharedModule -->
<g id="edge3" class="edge">
<title>ImageViewComponent&#45;&gt;SharedModule</title>
<path fill="none" stroke="#000000" d="M1725,-122.1061C1725,-141.3391 1725,-169 1725,-169 1725,-169 1144.4218,-169 1144.4218,-169"/>
<polygon fill="#000000" stroke="#000000" points="1144.4218,-165.5001 1134.4218,-169 1144.4218,-172.5001 1144.4218,-165.5001"/>
</g>
<!-- ListAutocompleteComponent -->
<g id="node4" class="node">
<title>ListAutocompleteComponent</title>
<polygon fill="#ffffb3" stroke="#000000" points="1633.4241,-122 1450.5759,-122 1450.5759,-86 1633.4241,-86 1633.4241,-122"/>
<text text-anchor="middle" x="1542" y="-99.8" font-family="Times,serif" font-size="14.00" fill="#000000">ListAutocompleteComponent</text>
</g>
<!-- ListAutocompleteComponent&#45;&gt;SharedModule -->
<g id="edge4" class="edge">
<title>ListAutocompleteComponent&#45;&gt;SharedModule</title>
<path fill="none" stroke="#000000" d="M1542,-122.302C1542,-140.2699 1542,-165 1542,-165 1542,-165 1144.3412,-165 1144.3412,-165"/>
<polygon fill="#000000" stroke="#000000" points="1144.3412,-161.5001 1134.3412,-165 1144.3412,-168.5001 1144.3412,-161.5001"/>
</g>
<!-- ModalComponent -->
<g id="node5" class="node">
<title>ModalComponent</title>
<polygon fill="#ffffb3" stroke="#000000" points="1432.8823,-122 1315.1177,-122 1315.1177,-86 1432.8823,-86 1432.8823,-122"/>
<text text-anchor="middle" x="1374" y="-99.8" font-family="Times,serif" font-size="14.00" fill="#000000">ModalComponent</text>
</g>
<!-- ModalComponent&#45;&gt;SharedModule -->
<g id="edge5" class="edge">
<title>ModalComponent&#45;&gt;SharedModule</title>
<path fill="none" stroke="#000000" d="M1330.5623,-122.027C1330.5623,-138.3976 1330.5623,-160 1330.5623,-160 1330.5623,-160 1144.3978,-160 1144.3978,-160"/>
<polygon fill="#000000" stroke="#000000" points="1144.3978,-156.5001 1134.3978,-160 1144.3978,-163.5001 1144.3978,-156.5001"/>
</g>
<!-- SelectListComponent -->
<g id="node6" class="node">
<title>SelectListComponent</title>
<polygon fill="#ffffb3" stroke="#000000" points="1296.8188,-122 1159.1812,-122 1159.1812,-86 1296.8188,-86 1296.8188,-122"/>
<text text-anchor="middle" x="1228" y="-99.8" font-family="Times,serif" font-size="14.00" fill="#000000">SelectListComponent</text>
</g>
<!-- SelectListComponent&#45;&gt;SharedModule -->
<g id="edge6" class="edge">
<title>SelectListComponent&#45;&gt;SharedModule</title>
<path fill="none" stroke="#000000" d="M1168.6513,-122.1871C1168.6513,-137.1824 1168.6513,-156 1168.6513,-156 1168.6513,-156 1144.6271,-156 1144.6271,-156"/>
<polygon fill="#000000" stroke="#000000" points="1144.6271,-152.5001 1134.6271,-156 1144.6271,-159.5001 1144.6271,-152.5001"/>
</g>
<!-- TableComponent -->
<g id="node7" class="node">
<title>TableComponent</title>
<polygon fill="#ffffb3" stroke="#000000" points="1141.705,-122 1028.295,-122 1028.295,-86 1141.705,-86 1141.705,-122"/>
<text text-anchor="middle" x="1085" y="-99.8" font-family="Times,serif" font-size="14.00" fill="#000000">TableComponent</text>
</g>
<!-- TableComponent&#45;&gt;SharedModule -->
<g id="edge7" class="edge">
<title>TableComponent&#45;&gt;SharedModule</title>
<path fill="none" stroke="#000000" d="M1085,-122.1061C1085,-122.1061 1085,-140.991 1085,-140.991"/>
<polygon fill="#000000" stroke="#000000" points="1081.5001,-140.9909 1085,-150.991 1088.5001,-140.991 1081.5001,-140.9909"/>
</g>
<!-- ImageViewComponent  -->
<g id="node9" class="node">
<title>ImageViewComponent </title>
<polygon fill="#fb8072" stroke="#000000" points="1346.1313,-252 1195.8687,-252 1195.8687,-216 1346.1313,-216 1346.1313,-252"/>
<text text-anchor="middle" x="1271" y="-229.8" font-family="Times,serif" font-size="14.00" fill="#000000">ImageViewComponent </text>
</g>
<!-- SharedModule&#45;&gt;ImageViewComponent  -->
<g id="edge8" class="edge">
<title>SharedModule&#45;&gt;ImageViewComponent </title>
<path fill="none" stroke="#000000" stroke-dasharray="5,2" d="M1134.2708,-183C1181.7052,-183 1246.2968,-183 1246.2968,-183 1246.2968,-183 1246.2968,-205.8757 1246.2968,-205.8757"/>
<polygon fill="#000000" stroke="#000000" points="1242.7969,-205.8757 1246.2968,-215.8757 1249.7969,-205.8757 1242.7969,-205.8757"/>
</g>
<!-- ListAutocompleteComponent  -->
<g id="node10" class="node">
<title>ListAutocompleteComponent </title>
<polygon fill="#fb8072" stroke="#000000" points="1177.9236,-252 992.0764,-252 992.0764,-216 1177.9236,-216 1177.9236,-252"/>
<text text-anchor="middle" x="1085" y="-229.8" font-family="Times,serif" font-size="14.00" fill="#000000">ListAutocompleteComponent </text>
</g>
<!-- SharedModule&#45;&gt;ListAutocompleteComponent  -->
<g id="edge9" class="edge">
<title>SharedModule&#45;&gt;ListAutocompleteComponent </title>
<path fill="none" stroke="#000000" stroke-dasharray="5,2" d="M1085,-187.1061C1085,-187.1061 1085,-205.991 1085,-205.991"/>
<polygon fill="#000000" stroke="#000000" points="1081.5001,-205.9909 1085,-215.991 1088.5001,-205.991 1081.5001,-205.9909"/>
</g>
<!-- SelectListComponent  -->
<g id="node11" class="node">
<title>SelectListComponent </title>
<polygon fill="#fb8072" stroke="#000000" points="974.3185,-252 833.6815,-252 833.6815,-216 974.3185,-216 974.3185,-252"/>
<text text-anchor="middle" x="904" y="-229.8" font-family="Times,serif" font-size="14.00" fill="#000000">SelectListComponent </text>
</g>
<!-- SharedModule&#45;&gt;SelectListComponent  -->
<g id="edge10" class="edge">
<title>SharedModule&#45;&gt;SelectListComponent </title>
<path fill="none" stroke="#000000" stroke-dasharray="5,2" d="M1035.541,-183C981.9502,-183 904,-183 904,-183 904,-183 904,-205.8757 904,-205.8757"/>
<polygon fill="#000000" stroke="#000000" points="900.5001,-205.8757 904,-215.8757 907.5001,-205.8757 900.5001,-205.8757"/>
</g>
<!-- AuthorizatedComponentGuard -->
<g id="node12" class="node">
<title>AuthorizatedComponentGuard</title>
<ellipse fill="#fdb462" stroke="#000000" cx="873" cy="-104" rx="130.7853" ry="18"/>
<text text-anchor="middle" x="873" y="-99.8" font-family="Times,serif" font-size="14.00" fill="#000000">AuthorizatedComponentGuard</text>
</g>
<!-- AuthorizatedComponentGuard&#45;&gt;SharedModule -->
<g id="edge11" class="edge">
<title>AuthorizatedComponentGuard&#45;&gt;SharedModule</title>
<path fill="none" stroke="#000000" d="M997.8404,-109.5649C997.8404,-122.9795 997.8404,-156 997.8404,-156 997.8404,-156 1025.5629,-156 1025.5629,-156"/>
<polygon fill="#000000" stroke="#000000" points="1025.563,-159.5001 1035.5629,-156 1025.5629,-152.5001 1025.563,-159.5001"/>
</g>
<!-- AuthorizatedGuard -->
<g id="node13" class="node">
<title>AuthorizatedGuard</title>
<ellipse fill="#fdb462" stroke="#000000" cx="639" cy="-104" rx="85.6551" ry="18"/>
<text text-anchor="middle" x="639" y="-99.8" font-family="Times,serif" font-size="14.00" fill="#000000">AuthorizatedGuard</text>
</g>
<!-- AuthorizatedGuard&#45;&gt;SharedModule -->
<g id="edge12" class="edge">
<title>AuthorizatedGuard&#45;&gt;SharedModule</title>
<path fill="none" stroke="#000000" d="M639,-122.027C639,-138.3976 639,-160 639,-160 639,-160 1025.5661,-160 1025.5661,-160"/>
<polygon fill="#000000" stroke="#000000" points="1025.5662,-163.5001 1035.5661,-160 1025.5661,-156.5001 1025.5662,-163.5001"/>
</g>
<!-- BaseCore -->
<g id="node14" class="node">
<title>BaseCore</title>
<ellipse fill="#fdb462" stroke="#000000" cx="487" cy="-104" rx="48.652" ry="18"/>
<text text-anchor="middle" x="487" y="-99.8" font-family="Times,serif" font-size="14.00" fill="#000000">BaseCore</text>
</g>
<!-- BaseCore&#45;&gt;SharedModule -->
<g id="edge13" class="edge">
<title>BaseCore&#45;&gt;SharedModule</title>
<path fill="none" stroke="#000000" d="M487,-122.302C487,-140.2699 487,-165 487,-165 487,-165 1025.5544,-165 1025.5544,-165"/>
<polygon fill="#000000" stroke="#000000" points="1025.5544,-168.5001 1035.5544,-165 1025.5544,-161.5001 1025.5544,-168.5001"/>
</g>
<!-- ModalService -->
<g id="node15" class="node">
<title>ModalService</title>
<ellipse fill="#fdb462" stroke="#000000" cx="355" cy="-104" rx="65.4072" ry="18"/>
<text text-anchor="middle" x="355" y="-99.8" font-family="Times,serif" font-size="14.00" fill="#000000">ModalService</text>
</g>
<!-- ModalService&#45;&gt;SharedModule -->
<g id="edge14" class="edge">
<title>ModalService&#45;&gt;SharedModule</title>
<path fill="none" stroke="#000000" d="M355,-122.1061C355,-141.3391 355,-169 355,-169 355,-169 1025.6839,-169 1025.6839,-169"/>
<polygon fill="#000000" stroke="#000000" points="1025.684,-172.5001 1035.6839,-169 1025.6839,-165.5001 1025.684,-172.5001"/>
</g>
<!-- PublicGuard -->
<g id="node16" class="node">
<title>PublicGuard</title>
<ellipse fill="#fdb462" stroke="#000000" cx="212" cy="-104" rx="59.6916" ry="18"/>
<text text-anchor="middle" x="212" y="-99.8" font-family="Times,serif" font-size="14.00" fill="#000000">PublicGuard</text>
</g>
<!-- PublicGuard&#45;&gt;SharedModule -->
<g id="edge15" class="edge">
<title>PublicGuard&#45;&gt;SharedModule</title>
<path fill="none" stroke="#000000" d="M212,-122.0267C212,-142.7672 212,-174 212,-174 212,-174 1025.5624,-174 1025.5624,-174"/>
<polygon fill="#000000" stroke="#000000" points="1025.5624,-177.5001 1035.5624,-174 1025.5624,-170.5001 1025.5624,-177.5001"/>
</g>
<!-- RestShared -->
<g id="node17" class="node">
<title>RestShared</title>
<ellipse fill="#fdb462" stroke="#000000" cx="79" cy="-104" rx="55.0323" ry="18"/>
<text text-anchor="middle" x="79" y="-99.8" font-family="Times,serif" font-size="14.00" fill="#000000">RestShared</text>
</g>
<!-- RestShared&#45;&gt;SharedModule -->
<g id="edge16" class="edge">
<title>RestShared&#45;&gt;SharedModule</title>
<path fill="none" stroke="#000000" d="M79,-122.2921C79,-144.2057 79,-178 79,-178 79,-178 1025.4554,-178 1025.4554,-178"/>
<polygon fill="#000000" stroke="#000000" points="1025.4555,-181.5001 1035.4554,-178 1025.4554,-174.5001 1025.4555,-181.5001"/>
</g>
</g>
</svg>
