<?xml version="1.0" encoding="UTF-8" standalone="no"?>
<!DOCTYPE svg PUBLIC "-//W3C//DTD SVG 1.1//EN"
 "http://www.w3.org/Graphics/SVG/1.1/DTD/svg11.dtd">
<!-- Generated by graphviz version 2.40.1 (20161225.0304)
 -->
<!-- Title: dependencies Pages: 1 -->
<svg width="1223pt" height="211pt"
 viewBox="0.00 0.00 1223.00 211.00" xmlns="http://www.w3.org/2000/svg" xmlns:xlink="http://www.w3.org/1999/xlink">
<g id="graph0" class="graph" transform="scale(1 1) rotate(0) translate(4 207)">
<title>dependencies</title>
<polygon fill="#ffffff" stroke="transparent" points="-4,4 -4,-207 1219,-207 1219,4 -4,4"/>
<text text-anchor="start" x="586.5091" y="-42.4" font-family="sans-serif" font-weight="bold" font-size="14.00" fill="#000000">Legend</text>
<polygon fill="#ffffb3" stroke="transparent" points="373.5,-10 373.5,-30 393.5,-30 393.5,-10 373.5,-10"/>
<text text-anchor="start" x="397.129" y="-15.4" font-family="sans-serif" font-size="14.00" fill="#000000"> &#160;Declarations</text>
<polygon fill="#8dd3c7" stroke="transparent" points="486.5,-10 486.5,-30 506.5,-30 506.5,-10 486.5,-10"/>
<text text-anchor="start" x="510.2251" y="-15.4" font-family="sans-serif" font-size="14.00" fill="#000000"> &#160;Module</text>
<polygon fill="#80b1d3" stroke="transparent" points="572.5,-10 572.5,-30 592.5,-30 592.5,-10 572.5,-10"/>
<text text-anchor="start" x="596.2812" y="-15.4" font-family="sans-serif" font-size="14.00" fill="#000000"> &#160;Bootstrap</text>
<polygon fill="#fdb462" stroke="transparent" points="669.5,-10 669.5,-30 689.5,-30 689.5,-10 669.5,-10"/>
<text text-anchor="start" x="693.1732" y="-15.4" font-family="sans-serif" font-size="14.00" fill="#000000"> &#160;Providers</text>
<polygon fill="#fb8072" stroke="transparent" points="765.5,-10 765.5,-30 785.5,-30 785.5,-10 765.5,-10"/>
<text text-anchor="start" x="789.2258" y="-15.4" font-family="sans-serif" font-size="14.00" fill="#000000"> &#160;Exports</text>
<g id="clust1" class="cluster">
<title>cluster_UsersModule</title>
<polygon fill="none" stroke="#000000" stroke-dasharray="1,5" points="8,-70 8,-195 1207,-195 1207,-70 8,-70"/>
</g>
<g id="clust2" class="cluster">
<title>cluster_UsersModule_declarations</title>
<polygon fill="none" stroke="#000000" points="298,-78 298,-130 1199,-130 1199,-78 298,-78"/>
</g>
<g id="clust9" class="cluster">
<title>cluster_UsersModule_imports</title>
<polygon fill="none" stroke="#000000" points="156,-78 156,-130 290,-130 290,-78 156,-78"/>
</g>
<g id="clust12" class="cluster">
<title>cluster_UsersModule_providers</title>
<polygon fill="none" stroke="#000000" points="16,-78 16,-130 148,-130 148,-78 16,-78"/>
</g>
<!-- ProfileComponent -->
<g id="node1" class="node">
<title>ProfileComponent</title>
<polygon fill="#ffffb3" stroke="#000000" points="1190.9328,-122 1071.0672,-122 1071.0672,-86 1190.9328,-86 1190.9328,-122"/>
<text text-anchor="middle" x="1131" y="-99.8" font-family="Times,serif" font-size="14.00" fill="#000000">ProfileComponent</text>
</g>
<!-- UsersModule -->
<g id="node7" class="node">
<title>UsersModule</title>
<polygon fill="#8dd3c7" stroke="#000000" points="631.9218,-187 628.9218,-191 607.9218,-191 604.9218,-187 540.0782,-187 540.0782,-151 631.9218,-151 631.9218,-187"/>
<text text-anchor="middle" x="586" y="-164.8" font-family="Times,serif" font-size="14.00" fill="#000000">UsersModule</text>
</g>
<!-- ProfileComponent&#45;&gt;UsersModule -->
<g id="edge1" class="edge">
<title>ProfileComponent&#45;&gt;UsersModule</title>
<path fill="none" stroke="#000000" d="M1131,-122.2921C1131,-144.2057 1131,-178 1131,-178 1131,-178 641.9967,-178 641.9967,-178"/>
<polygon fill="#000000" stroke="#000000" points="641.9967,-174.5001 631.9967,-178 641.9967,-181.5001 641.9967,-174.5001"/>
</g>
<!-- UserDetailComponent -->
<g id="node2" class="node">
<title>UserDetailComponent</title>
<polygon fill="#ffffb3" stroke="#000000" points="1052.9664,-122 911.0336,-122 911.0336,-86 1052.9664,-86 1052.9664,-122"/>
<text text-anchor="middle" x="982" y="-99.8" font-family="Times,serif" font-size="14.00" fill="#000000">UserDetailComponent</text>
</g>
<!-- UserDetailComponent&#45;&gt;UsersModule -->
<g id="edge2" class="edge">
<title>UserDetailComponent&#45;&gt;UsersModule</title>
<path fill="none" stroke="#000000" d="M982,-122.1061C982,-141.3391 982,-169 982,-169 982,-169 641.8131,-169 641.8131,-169"/>
<polygon fill="#000000" stroke="#000000" points="641.8131,-165.5001 631.8131,-169 641.8131,-172.5001 641.8131,-165.5001"/>
</g>
<!-- UserUpdateComponent -->
<g id="node3" class="node">
<title>UserUpdateComponent</title>
<polygon fill="#ffffb3" stroke="#000000" points="893.1853,-122 744.8147,-122 744.8147,-86 893.1853,-86 893.1853,-122"/>
<text text-anchor="middle" x="819" y="-99.8" font-family="Times,serif" font-size="14.00" fill="#000000">UserUpdateComponent</text>
</g>
<!-- UserUpdateComponent&#45;&gt;UsersModule -->
<g id="edge3" class="edge">
<title>UserUpdateComponent&#45;&gt;UsersModule</title>
<path fill="none" stroke="#000000" d="M819,-122.027C819,-138.3976 819,-160 819,-160 819,-160 641.7553,-160 641.7553,-160"/>
<polygon fill="#000000" stroke="#000000" points="641.7553,-156.5001 631.7553,-160 641.7553,-163.5001 641.7553,-156.5001"/>
</g>
<!-- UsersAddComponent -->
<g id="node4" class="node">
<title>UsersAddComponent</title>
<polygon fill="#ffffb3" stroke="#000000" points="726.8104,-122 589.1896,-122 589.1896,-86 726.8104,-86 726.8104,-122"/>
<text text-anchor="middle" x="658" y="-99.8" font-family="Times,serif" font-size="14.00" fill="#000000">UsersAddComponent</text>
</g>
<!-- UsersAddComponent&#45;&gt;UsersModule -->
<g id="edge4" class="edge">
<title>UsersAddComponent&#45;&gt;UsersModule</title>
<path fill="none" stroke="#000000" d="M610.5277,-122.1061C610.5277,-122.1061 610.5277,-140.991 610.5277,-140.991"/>
<polygon fill="#000000" stroke="#000000" points="607.0278,-140.9909 610.5277,-150.991 614.0278,-140.991 607.0278,-140.9909"/>
</g>
<!-- UsersComponent -->
<g id="node5" class="node">
<title>UsersComponent</title>
<polygon fill="#ffffb3" stroke="#000000" points="571.7036,-122 458.2964,-122 458.2964,-86 571.7036,-86 571.7036,-122"/>
<text text-anchor="middle" x="515" y="-99.8" font-family="Times,serif" font-size="14.00" fill="#000000">UsersComponent</text>
</g>
<!-- UsersComponent&#45;&gt;UsersModule -->
<g id="edge5" class="edge">
<title>UsersComponent&#45;&gt;UsersModule</title>
<path fill="none" stroke="#000000" d="M555.9457,-122.1061C555.9457,-122.1061 555.9457,-140.991 555.9457,-140.991"/>
<polygon fill="#000000" stroke="#000000" points="552.4457,-140.9909 555.9457,-150.991 559.4457,-140.991 552.4457,-140.9909"/>
</g>
<!-- UsersListComponent -->
<g id="node6" class="node">
<title>UsersListComponent</title>
<polygon fill="#ffffb3" stroke="#000000" points="440.4818,-122 305.5182,-122 305.5182,-86 440.4818,-86 440.4818,-122"/>
<text text-anchor="middle" x="373" y="-99.8" font-family="Times,serif" font-size="14.00" fill="#000000">UsersListComponent</text>
</g>
<!-- UsersListComponent&#45;&gt;UsersModule -->
<g id="edge6" class="edge">
<title>UsersListComponent&#45;&gt;UsersModule</title>
<path fill="none" stroke="#000000" d="M373,-122.027C373,-138.3976 373,-160 373,-160 373,-160 530.0444,-160 530.0444,-160"/>
<polygon fill="#000000" stroke="#000000" points="530.0444,-163.5001 540.0444,-160 530.0444,-156.5001 530.0444,-163.5001"/>
</g>
<!-- DirectivesModule -->
<g id="node8" class="node">
<title>DirectivesModule</title>
<polygon fill="#8dd3c7" stroke="#000000" points="281.5772,-122 278.5772,-126 257.5772,-126 254.5772,-122 164.4228,-122 164.4228,-86 281.5772,-86 281.5772,-122"/>
<text text-anchor="middle" x="223" y="-99.8" font-family="Times,serif" font-size="14.00" fill="#000000">DirectivesModule</text>
</g>
<!-- DirectivesModule&#45;&gt;UsersModule -->
<g id="edge7" class="edge">
<title>DirectivesModule&#45;&gt;UsersModule</title>
<path fill="none" stroke="#000000" d="M223,-122.1061C223,-141.3391 223,-169 223,-169 223,-169 530.0258,-169 530.0258,-169"/>
<polygon fill="#000000" stroke="#000000" points="530.0258,-172.5001 540.0258,-169 530.0258,-165.5001 530.0258,-172.5001"/>
</g>
<!-- UserService -->
<g id="node9" class="node">
<title>UserService</title>
<ellipse fill="#fdb462" stroke="#000000" cx="82" cy="-104" rx="58.4415" ry="18"/>
<text text-anchor="middle" x="82" y="-99.8" font-family="Times,serif" font-size="14.00" fill="#000000">UserService</text>
</g>
<!-- UserService&#45;&gt;UsersModule -->
<g id="edge8" class="edge">
<title>UserService&#45;&gt;UsersModule</title>
<path fill="none" stroke="#000000" d="M82,-122.2921C82,-144.2057 82,-178 82,-178 82,-178 529.9373,-178 529.9373,-178"/>
<polygon fill="#000000" stroke="#000000" points="529.9373,-181.5001 539.9373,-178 529.9372,-174.5001 529.9373,-181.5001"/>
</g>
</g>
</svg>
