<?xml version="1.0" encoding="UTF-8" standalone="no"?>
<!DOCTYPE svg PUBLIC "-//W3C//DTD SVG 1.1//EN"
 "http://www.w3.org/Graphics/SVG/1.1/DTD/svg11.dtd">
<!-- Generated by graphviz version 2.40.1 (20161225.0304)
 -->
<!-- Title: dependencies Pages: 1 -->
<svg width="650pt" height="276pt"
 viewBox="0.00 0.00 650.00 276.00" xmlns="http://www.w3.org/2000/svg" xmlns:xlink="http://www.w3.org/1999/xlink">
<g id="graph0" class="graph" transform="scale(1 1) rotate(0) translate(4 272)">
<title>dependencies</title>
<polygon fill="#ffffff" stroke="transparent" points="-4,4 -4,-272 646,-272 646,4 -4,4"/>
<text text-anchor="start" x="300.0091" y="-42.4" font-family="sans-serif" font-weight="bold" font-size="14.00" fill="#000000">Legend</text>
<polygon fill="#ffffb3" stroke="transparent" points="87,-10 87,-30 107,-30 107,-10 87,-10"/>
<text text-anchor="start" x="110.629" y="-15.4" font-family="sans-serif" font-size="14.00" fill="#000000"> &#160;Declarations</text>
<polygon fill="#8dd3c7" stroke="transparent" points="200,-10 200,-30 220,-30 220,-10 200,-10"/>
<text text-anchor="start" x="223.7251" y="-15.4" font-family="sans-serif" font-size="14.00" fill="#000000"> &#160;Module</text>
<polygon fill="#80b1d3" stroke="transparent" points="286,-10 286,-30 306,-30 306,-10 286,-10"/>
<text text-anchor="start" x="309.7812" y="-15.4" font-family="sans-serif" font-size="14.00" fill="#000000"> &#160;Bootstrap</text>
<polygon fill="#fdb462" stroke="transparent" points="383,-10 383,-30 403,-30 403,-10 383,-10"/>
<text text-anchor="start" x="406.6732" y="-15.4" font-family="sans-serif" font-size="14.00" fill="#000000"> &#160;Providers</text>
<polygon fill="#fb8072" stroke="transparent" points="479,-10 479,-30 499,-30 499,-10 479,-10"/>
<text text-anchor="start" x="502.7258" y="-15.4" font-family="sans-serif" font-size="14.00" fill="#000000"> &#160;Exports</text>
<g id="clust1" class="cluster">
<title>cluster_MailModule</title>
<polygon fill="none" stroke="#000000" stroke-dasharray="1,5" points="8,-70 8,-260 634,-260 634,-70 8,-70"/>
</g>
<g id="clust2" class="cluster">
<title>cluster_MailModule_declarations</title>
<polygon fill="none" stroke="#000000" points="16,-143 16,-195 626,-195 626,-143 16,-143"/>
</g>
<g id="clust3" class="cluster">
<title>cluster_MailModule_MailComponent_providers</title>
<polygon fill="none" stroke="#000000" points="494,-78 494,-130 626,-130 626,-78 494,-78"/>
</g>
<!-- MailComponent -->
<g id="node1" class="node">
<title>MailComponent</title>
<polygon fill="#ffffb3" stroke="#000000" points="617.773,-187 510.227,-187 510.227,-151 617.773,-151 617.773,-187"/>
<text text-anchor="middle" x="564" y="-164.8" font-family="Times,serif" font-size="14.00" fill="#000000">MailComponent</text>
</g>
<!-- MailModule -->
<g id="node5" class="node">
<title>MailModule</title>
<polygon fill="#8dd3c7" stroke="#000000" points="369.9902,-252 366.9902,-256 345.9902,-256 342.9902,-252 284.0098,-252 284.0098,-216 369.9902,-216 369.9902,-252"/>
<text text-anchor="middle" x="327" y="-229.8" font-family="Times,serif" font-size="14.00" fill="#000000">MailModule</text>
</g>
<!-- MailComponent&#45;&gt;MailModule -->
<g id="edge1" class="edge">
<title>MailComponent&#45;&gt;MailModule</title>
<path fill="none" stroke="#000000" d="M564,-187.1061C564,-206.3391 564,-234 564,-234 564,-234 380.1939,-234 380.1939,-234"/>
<polygon fill="#000000" stroke="#000000" points="380.1939,-230.5001 370.1939,-234 380.1938,-237.5001 380.1939,-230.5001"/>
</g>
<!-- MailComposeComponent -->
<g id="node2" class="node">
<title>MailComposeComponent</title>
<polygon fill="#ffffb3" stroke="#000000" points="492.1596,-187 331.8404,-187 331.8404,-151 492.1596,-151 492.1596,-187"/>
<text text-anchor="middle" x="412" y="-164.8" font-family="Times,serif" font-size="14.00" fill="#000000">MailComposeComponent</text>
</g>
<!-- MailComposeComponent&#45;&gt;MailModule -->
<g id="edge3" class="edge">
<title>MailComposeComponent&#45;&gt;MailModule</title>
<path fill="none" stroke="#000000" d="M350.8328,-187.1061C350.8328,-187.1061 350.8328,-205.991 350.8328,-205.991"/>
<polygon fill="#000000" stroke="#000000" points="347.3328,-205.9909 350.8328,-215.991 354.3328,-205.991 347.3328,-205.9909"/>
</g>
<!-- MailDetailComponent -->
<g id="node3" class="node">
<title>MailDetailComponent</title>
<polygon fill="#ffffb3" stroke="#000000" points="313.9804,-187 172.0196,-187 172.0196,-151 313.9804,-151 313.9804,-187"/>
<text text-anchor="middle" x="243" y="-164.8" font-family="Times,serif" font-size="14.00" fill="#000000">MailDetailComponent</text>
</g>
<!-- MailDetailComponent&#45;&gt;MailModule -->
<g id="edge4" class="edge">
<title>MailDetailComponent&#45;&gt;MailModule</title>
<path fill="none" stroke="#000000" d="M298.9976,-187.1061C298.9976,-187.1061 298.9976,-205.991 298.9976,-205.991"/>
<polygon fill="#000000" stroke="#000000" points="295.4976,-205.9909 298.9976,-215.991 302.4976,-205.991 295.4976,-205.9909"/>
</g>
<!-- MailListComponent -->
<g id="node4" class="node">
<title>MailListComponent</title>
<polygon fill="#ffffb3" stroke="#000000" points="153.552,-187 24.448,-187 24.448,-151 153.552,-151 153.552,-187"/>
<text text-anchor="middle" x="89" y="-164.8" font-family="Times,serif" font-size="14.00" fill="#000000">MailListComponent</text>
</g>
<!-- MailListComponent&#45;&gt;MailModule -->
<g id="edge5" class="edge">
<title>MailListComponent&#45;&gt;MailModule</title>
<path fill="none" stroke="#000000" d="M89,-187.1061C89,-206.3391 89,-234 89,-234 89,-234 273.9,-234 273.9,-234"/>
<polygon fill="#000000" stroke="#000000" points="273.9,-237.5001 283.9,-234 273.9,-230.5001 273.9,-237.5001"/>
</g>
<!-- MailService -->
<g id="node6" class="node">
<title>MailService</title>
<ellipse fill="#fdb462" stroke="#000000" cx="560" cy="-104" rx="58.4609" ry="18"/>
<text text-anchor="middle" x="560" y="-99.8" font-family="Times,serif" font-size="14.00" fill="#000000">MailService</text>
</g>
<!-- MailService&#45;&gt;MailComponent -->
<g id="edge2" class="edge">
<title>MailService&#45;&gt;MailComponent</title>
<path fill="none" stroke="#000000" d="M564,-122.1061C564,-122.1061 564,-140.991 564,-140.991"/>
<polygon fill="#000000" stroke="#000000" points="560.5001,-140.9909 564,-150.991 567.5001,-140.991 560.5001,-140.9909"/>
</g>
</g>
</svg>
