<?xml version="1.0" encoding="UTF-8" standalone="no"?>
<!DOCTYPE svg PUBLIC "-//W3C//DTD SVG 1.1//EN"
 "http://www.w3.org/Graphics/SVG/1.1/DTD/svg11.dtd">
<!-- Generated by graphviz version 2.40.1 (20161225.0304)
 -->
<!-- Title: dependencies Pages: 1 -->
<svg width="1571pt" height="211pt"
 viewBox="0.00 0.00 1571.00 211.00" xmlns="http://www.w3.org/2000/svg" xmlns:xlink="http://www.w3.org/1999/xlink">
<g id="graph0" class="graph" transform="scale(1 1) rotate(0) translate(4 207)">
<title>dependencies</title>
<polygon fill="#ffffff" stroke="transparent" points="-4,4 -4,-207 1567,-207 1567,4 -4,4"/>
<text text-anchor="start" x="760.5091" y="-42.4" font-family="sans-serif" font-weight="bold" font-size="14.00" fill="#000000">Legend</text>
<polygon fill="#ffffb3" stroke="transparent" points="547.5,-10 547.5,-30 567.5,-30 567.5,-10 547.5,-10"/>
<text text-anchor="start" x="571.129" y="-15.4" font-family="sans-serif" font-size="14.00" fill="#000000"> &#160;Declarations</text>
<polygon fill="#8dd3c7" stroke="transparent" points="660.5,-10 660.5,-30 680.5,-30 680.5,-10 660.5,-10"/>
<text text-anchor="start" x="684.2251" y="-15.4" font-family="sans-serif" font-size="14.00" fill="#000000"> &#160;Module</text>
<polygon fill="#80b1d3" stroke="transparent" points="746.5,-10 746.5,-30 766.5,-30 766.5,-10 746.5,-10"/>
<text text-anchor="start" x="770.2812" y="-15.4" font-family="sans-serif" font-size="14.00" fill="#000000"> &#160;Bootstrap</text>
<polygon fill="#fdb462" stroke="transparent" points="843.5,-10 843.5,-30 863.5,-30 863.5,-10 843.5,-10"/>
<text text-anchor="start" x="867.1732" y="-15.4" font-family="sans-serif" font-size="14.00" fill="#000000"> &#160;Providers</text>
<polygon fill="#fb8072" stroke="transparent" points="939.5,-10 939.5,-30 959.5,-30 959.5,-10 939.5,-10"/>
<text text-anchor="start" x="963.2258" y="-15.4" font-family="sans-serif" font-size="14.00" fill="#000000"> &#160;Exports</text>
<g id="clust1" class="cluster">
<title>cluster_UiModule</title>
<polygon fill="none" stroke="#000000" stroke-dasharray="1,5" points="8,-70 8,-195 1555,-195 1555,-70 8,-70"/>
</g>
<g id="clust2" class="cluster">
<title>cluster_UiModule_declarations</title>
<polygon fill="none" stroke="#000000" points="158,-78 158,-130 1547,-130 1547,-78 158,-78"/>
</g>
<g id="clust12" class="cluster">
<title>cluster_UiModule_imports</title>
<polygon fill="none" stroke="#000000" points="16,-78 16,-130 150,-130 150,-78 16,-78"/>
</g>
<!-- ButtonsComponent -->
<g id="node1" class="node">
<title>ButtonsComponent</title>
<polygon fill="#ffffb3" stroke="#000000" points="1539.3948,-122 1414.6052,-122 1414.6052,-86 1539.3948,-86 1539.3948,-122"/>
<text text-anchor="middle" x="1477" y="-99.8" font-family="Times,serif" font-size="14.00" fill="#000000">ButtonsComponent</text>
</g>
<!-- UiModule -->
<g id="node10" class="node">
<title>UiModule</title>
<polygon fill="#8dd3c7" stroke="#000000" points="878.5484,-187 875.5484,-191 854.5484,-191 851.5484,-187 805.4516,-187 805.4516,-151 878.5484,-151 878.5484,-187"/>
<text text-anchor="middle" x="842" y="-164.8" font-family="Times,serif" font-size="14.00" fill="#000000">UiModule</text>
</g>
<!-- ButtonsComponent&#45;&gt;UiModule -->
<g id="edge1" class="edge">
<title>ButtonsComponent&#45;&gt;UiModule</title>
<path fill="none" stroke="#000000" d="M1477,-122.0109C1477,-144.4852 1477,-180 1477,-180 1477,-180 888.885,-180 888.885,-180"/>
<polygon fill="#000000" stroke="#000000" points="888.885,-176.5001 878.885,-180 888.8849,-183.5001 888.885,-176.5001"/>
</g>
<!-- CardsComponent -->
<g id="node2" class="node">
<title>CardsComponent</title>
<polygon fill="#ffffb3" stroke="#000000" points="1396.9888,-122 1283.0112,-122 1283.0112,-86 1396.9888,-86 1396.9888,-122"/>
<text text-anchor="middle" x="1340" y="-99.8" font-family="Times,serif" font-size="14.00" fill="#000000">CardsComponent</text>
</g>
<!-- CardsComponent&#45;&gt;UiModule -->
<g id="edge2" class="edge">
<title>CardsComponent&#45;&gt;UiModule</title>
<path fill="none" stroke="#000000" d="M1340,-122.1289C1340,-142.5724 1340,-173 1340,-173 1340,-173 888.6191,-173 888.6191,-173"/>
<polygon fill="#000000" stroke="#000000" points="888.6192,-169.5001 878.6191,-173 888.6191,-176.5001 888.6192,-169.5001"/>
</g>
<!-- ComponentsComponent -->
<g id="node3" class="node">
<title>ComponentsComponent</title>
<polygon fill="#ffffb3" stroke="#000000" points="1265.1094,-122 1112.8906,-122 1112.8906,-86 1265.1094,-86 1265.1094,-122"/>
<text text-anchor="middle" x="1189" y="-99.8" font-family="Times,serif" font-size="14.00" fill="#000000">ComponentsComponent</text>
</g>
<!-- ComponentsComponent&#45;&gt;UiModule -->
<g id="edge3" class="edge">
<title>ComponentsComponent&#45;&gt;UiModule</title>
<path fill="none" stroke="#000000" d="M1189,-122.2667C1189,-140.5552 1189,-166 1189,-166 1189,-166 888.8066,-166 888.8066,-166"/>
<polygon fill="#000000" stroke="#000000" points="888.8066,-162.5001 878.8066,-166 888.8065,-169.5001 888.8066,-162.5001"/>
</g>
<!-- GridComponent -->
<g id="node4" class="node">
<title>GridComponent</title>
<polygon fill="#ffffb3" stroke="#000000" points="1094.4902,-122 987.5098,-122 987.5098,-86 1094.4902,-86 1094.4902,-122"/>
<text text-anchor="middle" x="1041" y="-99.8" font-family="Times,serif" font-size="14.00" fill="#000000">GridComponent</text>
</g>
<!-- GridComponent&#45;&gt;UiModule -->
<g id="edge4" class="edge">
<title>GridComponent&#45;&gt;UiModule</title>
<path fill="none" stroke="#000000" d="M1041,-122.0091C1041,-138.0494 1041,-159 1041,-159 1041,-159 888.964,-159 888.964,-159"/>
<polygon fill="#000000" stroke="#000000" points="888.964,-155.5001 878.964,-159 888.964,-162.5001 888.964,-155.5001"/>
</g>
<!-- IconsComponent -->
<g id="node5" class="node">
<title>IconsComponent</title>
<polygon fill="#ffffb3" stroke="#000000" points="969.6527,-122 858.3473,-122 858.3473,-86 969.6527,-86 969.6527,-122"/>
<text text-anchor="middle" x="914" y="-99.8" font-family="Times,serif" font-size="14.00" fill="#000000">IconsComponent</text>
</g>
<!-- IconsComponent&#45;&gt;UiModule -->
<g id="edge5" class="edge">
<title>IconsComponent&#45;&gt;UiModule</title>
<path fill="none" stroke="#000000" d="M868.4737,-122.1061C868.4737,-122.1061 868.4737,-140.991 868.4737,-140.991"/>
<polygon fill="#000000" stroke="#000000" points="864.9738,-140.9909 868.4737,-150.991 871.9738,-140.991 864.9738,-140.9909"/>
</g>
<!-- ListGroupComponent -->
<g id="node6" class="node">
<title>ListGroupComponent</title>
<polygon fill="#ffffb3" stroke="#000000" points="840.3781,-122 701.6219,-122 701.6219,-86 840.3781,-86 840.3781,-122"/>
<text text-anchor="middle" x="771" y="-99.8" font-family="Times,serif" font-size="14.00" fill="#000000">ListGroupComponent</text>
</g>
<!-- ListGroupComponent&#45;&gt;UiModule -->
<g id="edge6" class="edge">
<title>ListGroupComponent&#45;&gt;UiModule</title>
<path fill="none" stroke="#000000" d="M822.8328,-122.1061C822.8328,-122.1061 822.8328,-140.991 822.8328,-140.991"/>
<polygon fill="#000000" stroke="#000000" points="819.3328,-140.9909 822.8328,-150.991 826.3328,-140.991 819.3328,-140.9909"/>
</g>
<!-- MediaObjectsComponent -->
<g id="node7" class="node">
<title>MediaObjectsComponent</title>
<polygon fill="#ffffb3" stroke="#000000" points="683.8585,-122 524.1415,-122 524.1415,-86 683.8585,-86 683.8585,-122"/>
<text text-anchor="middle" x="604" y="-99.8" font-family="Times,serif" font-size="14.00" fill="#000000">MediaObjectsComponent</text>
</g>
<!-- MediaObjectsComponent&#45;&gt;UiModule -->
<g id="edge7" class="edge">
<title>MediaObjectsComponent&#45;&gt;UiModule</title>
<path fill="none" stroke="#000000" d="M604,-122.0091C604,-138.0494 604,-159 604,-159 604,-159 795.3341,-159 795.3341,-159"/>
<polygon fill="#000000" stroke="#000000" points="795.3341,-162.5001 805.3341,-159 795.334,-155.5001 795.3341,-162.5001"/>
</g>
<!-- TabsAccordionsComponent -->
<g id="node8" class="node">
<title>TabsAccordionsComponent</title>
<polygon fill="#ffffb3" stroke="#000000" points="506.5758,-122 333.4242,-122 333.4242,-86 506.5758,-86 506.5758,-122"/>
<text text-anchor="middle" x="420" y="-99.8" font-family="Times,serif" font-size="14.00" fill="#000000">TabsAccordionsComponent</text>
</g>
<!-- TabsAccordionsComponent&#45;&gt;UiModule -->
<g id="edge8" class="edge">
<title>TabsAccordionsComponent&#45;&gt;UiModule</title>
<path fill="none" stroke="#000000" d="M420,-122.2667C420,-140.5552 420,-166 420,-166 420,-166 795.2885,-166 795.2885,-166"/>
<polygon fill="#000000" stroke="#000000" points="795.2885,-169.5001 805.2885,-166 795.2885,-162.5001 795.2885,-169.5001"/>
</g>
<!-- TypographyComponent -->
<g id="node9" class="node">
<title>TypographyComponent</title>
<polygon fill="#ffffb3" stroke="#000000" points="315.7604,-122 166.2396,-122 166.2396,-86 315.7604,-86 315.7604,-122"/>
<text text-anchor="middle" x="241" y="-99.8" font-family="Times,serif" font-size="14.00" fill="#000000">TypographyComponent</text>
</g>
<!-- TypographyComponent&#45;&gt;UiModule -->
<g id="edge9" class="edge">
<title>TypographyComponent&#45;&gt;UiModule</title>
<path fill="none" stroke="#000000" d="M241,-122.1289C241,-142.5724 241,-173 241,-173 241,-173 795.3095,-173 795.3095,-173"/>
<polygon fill="#000000" stroke="#000000" points="795.3095,-176.5001 805.3095,-173 795.3094,-169.5001 795.3095,-176.5001"/>
</g>
<!-- DirectivesModule -->
<g id="node11" class="node">
<title>DirectivesModule</title>
<polygon fill="#8dd3c7" stroke="#000000" points="141.5772,-122 138.5772,-126 117.5772,-126 114.5772,-122 24.4228,-122 24.4228,-86 141.5772,-86 141.5772,-122"/>
<text text-anchor="middle" x="83" y="-99.8" font-family="Times,serif" font-size="14.00" fill="#000000">DirectivesModule</text>
</g>
<!-- DirectivesModule&#45;&gt;UiModule -->
<g id="edge10" class="edge">
<title>DirectivesModule&#45;&gt;UiModule</title>
<path fill="none" stroke="#000000" d="M83,-122.0109C83,-144.4852 83,-180 83,-180 83,-180 795.3919,-180 795.3919,-180"/>
<polygon fill="#000000" stroke="#000000" points="795.3919,-183.5001 805.3919,-180 795.3918,-176.5001 795.3919,-183.5001"/>
</g>
</g>
</svg>
