<?xml version="1.0" encoding="UTF-8" standalone="no"?>
<!DOCTYPE svg PUBLIC "-//W3C//DTD SVG 1.1//EN"
 "http://www.w3.org/Graphics/SVG/1.1/DTD/svg11.dtd">
<!-- Generated by graphviz version 2.40.1 (20161225.0304)
 -->
<!-- Title: dependencies Pages: 1 -->
<svg width="532pt" height="284pt"
 viewBox="0.00 0.00 532.00 284.00" xmlns="http://www.w3.org/2000/svg" xmlns:xlink="http://www.w3.org/1999/xlink">
<g id="graph0" class="graph" transform="scale(1 1) rotate(0) translate(4 280)">
<title>dependencies</title>
<polygon fill="#ffffff" stroke="transparent" points="-4,4 -4,-280 528,-280 528,4 -4,4"/>
<text text-anchor="start" x="241.0091" y="-42.4" font-family="sans-serif" font-weight="bold" font-size="14.00" fill="#000000">Legend</text>
<polygon fill="#ffffb3" stroke="transparent" points="28,-10 28,-30 48,-30 48,-10 28,-10"/>
<text text-anchor="start" x="51.629" y="-15.4" font-family="sans-serif" font-size="14.00" fill="#000000"> &#160;Declarations</text>
<polygon fill="#8dd3c7" stroke="transparent" points="141,-10 141,-30 161,-30 161,-10 141,-10"/>
<text text-anchor="start" x="164.7251" y="-15.4" font-family="sans-serif" font-size="14.00" fill="#000000"> &#160;Module</text>
<polygon fill="#80b1d3" stroke="transparent" points="227,-10 227,-30 247,-30 247,-10 227,-10"/>
<text text-anchor="start" x="250.7812" y="-15.4" font-family="sans-serif" font-size="14.00" fill="#000000"> &#160;Bootstrap</text>
<polygon fill="#fdb462" stroke="transparent" points="324,-10 324,-30 344,-30 344,-10 324,-10"/>
<text text-anchor="start" x="347.6732" y="-15.4" font-family="sans-serif" font-size="14.00" fill="#000000"> &#160;Providers</text>
<polygon fill="#fb8072" stroke="transparent" points="420,-10 420,-30 440,-30 440,-10 420,-10"/>
<text text-anchor="start" x="443.7258" y="-15.4" font-family="sans-serif" font-size="14.00" fill="#000000"> &#160;Exports</text>
<g id="clust1" class="cluster">
<title>cluster_PipesModule</title>
<polygon fill="none" stroke="#000000" stroke-dasharray="1,5" points="8,-70 8,-268 516,-268 516,-70 8,-70"/>
</g>
<g id="clust2" class="cluster">
<title>cluster_PipesModule_declarations</title>
<polygon fill="none" stroke="#000000" points="25,-78 25,-130 502,-130 502,-78 25,-78"/>
</g>
<g id="clust8" class="cluster">
<title>cluster_PipesModule_exports</title>
<polygon fill="none" stroke="#000000" points="16,-208 16,-260 508,-260 508,-208 16,-208"/>
</g>
<!-- AppPicturePipe -->
<g id="node1" class="node">
<title>AppPicturePipe</title>
<polygon fill="#ffffb3" stroke="#000000" points="494.1486,-122 389.8514,-122 389.8514,-86 494.1486,-86 494.1486,-122"/>
<text text-anchor="middle" x="442" y="-99.8" font-family="Times,serif" font-size="14.00" fill="#000000">AppPicturePipe</text>
</g>
<!-- PipesModule -->
<g id="node5" class="node">
<title>PipesModule</title>
<polygon fill="#8dd3c7" stroke="#000000" points="235.8823,-187 232.8823,-191 211.8823,-191 208.8823,-187 146.1177,-187 146.1177,-151 235.8823,-151 235.8823,-187"/>
<text text-anchor="middle" x="191" y="-164.8" font-family="Times,serif" font-size="14.00" fill="#000000">PipesModule</text>
</g>
<!-- AppPicturePipe&#45;&gt;PipesModule -->
<g id="edge1" class="edge">
<title>AppPicturePipe&#45;&gt;PipesModule</title>
<path fill="none" stroke="#000000" d="M460.1913,-122.2667C460.1913,-140.5552 460.1913,-166 460.1913,-166 460.1913,-166 246.0566,-166 246.0566,-166"/>
<polygon fill="#000000" stroke="#000000" points="246.0566,-162.5001 236.0566,-166 246.0565,-169.5001 246.0566,-162.5001"/>
</g>
<!-- MailSearchPipe -->
<g id="node2" class="node">
<title>MailSearchPipe</title>
<polygon fill="#ffffb3" stroke="#000000" points="371.916,-122 266.084,-122 266.084,-86 371.916,-86 371.916,-122"/>
<text text-anchor="middle" x="319" y="-99.8" font-family="Times,serif" font-size="14.00" fill="#000000">MailSearchPipe</text>
</g>
<!-- MailSearchPipe&#45;&gt;PipesModule -->
<g id="edge2" class="edge">
<title>MailSearchPipe&#45;&gt;PipesModule</title>
<path fill="none" stroke="#000000" d="M336.5692,-122.0091C336.5692,-138.0494 336.5692,-159 336.5692,-159 336.5692,-159 246.2611,-159 246.2611,-159"/>
<polygon fill="#000000" stroke="#000000" points="246.2611,-155.5001 236.2611,-159 246.261,-162.5001 246.2611,-155.5001"/>
</g>
<!-- ProfilePicturePipe -->
<g id="node3" class="node">
<title>ProfilePicturePipe</title>
<polygon fill="#ffffb3" stroke="#000000" points="248.1415,-122 129.8585,-122 129.8585,-86 248.1415,-86 248.1415,-122"/>
<text text-anchor="middle" x="189" y="-99.8" font-family="Times,serif" font-size="14.00" fill="#000000">ProfilePicturePipe</text>
</g>
<!-- ProfilePicturePipe&#45;&gt;PipesModule -->
<g id="edge3" class="edge">
<title>ProfilePicturePipe&#45;&gt;PipesModule</title>
<path fill="none" stroke="#000000" d="M191,-122.1061C191,-122.1061 191,-140.991 191,-140.991"/>
<polygon fill="#000000" stroke="#000000" points="187.5001,-140.9909 191,-150.991 194.5001,-140.991 187.5001,-140.9909"/>
</g>
<!-- SearchPipe -->
<g id="node4" class="node">
<title>SearchPipe</title>
<polygon fill="#ffffb3" stroke="#000000" points="111.4748,-122 32.5252,-122 32.5252,-86 111.4748,-86 111.4748,-122"/>
<text text-anchor="middle" x="72" y="-99.8" font-family="Times,serif" font-size="14.00" fill="#000000">SearchPipe</text>
</g>
<!-- SearchPipe&#45;&gt;PipesModule -->
<g id="edge4" class="edge">
<title>SearchPipe&#45;&gt;PipesModule</title>
<path fill="none" stroke="#000000" d="M81.6625,-122.0225C81.6625,-139.3734 81.6625,-163 81.6625,-163 81.6625,-163 135.897,-163 135.897,-163"/>
<polygon fill="#000000" stroke="#000000" points="135.897,-166.5001 145.897,-163 135.897,-159.5001 135.897,-166.5001"/>
</g>
<!-- AppPicturePipe  -->
<g id="node6" class="node">
<title>AppPicturePipe </title>
<polygon fill="#fb8072" stroke="#000000" points="500.1481,-252 391.8519,-252 391.8519,-216 500.1481,-216 500.1481,-252"/>
<text text-anchor="middle" x="446" y="-229.8" font-family="Times,serif" font-size="14.00" fill="#000000">AppPicturePipe </text>
</g>
<!-- PipesModule&#45;&gt;AppPicturePipe  -->
<g id="edge5" class="edge">
<title>PipesModule&#45;&gt;AppPicturePipe </title>
<path fill="none" stroke="#000000" stroke-dasharray="5,2" d="M236.0436,-173C304.2968,-173 426.0587,-173 426.0587,-173 426.0587,-173 426.0587,-205.698 426.0587,-205.698"/>
<polygon fill="#000000" stroke="#000000" points="422.5588,-205.698 426.0587,-215.698 429.5588,-205.698 422.5588,-205.698"/>
</g>
<!-- MailSearchPipe  -->
<g id="node7" class="node">
<title>MailSearchPipe </title>
<polygon fill="#fb8072" stroke="#000000" points="373.4152,-252 264.5848,-252 264.5848,-216 373.4152,-216 373.4152,-252"/>
<text text-anchor="middle" x="319" y="-229.8" font-family="Times,serif" font-size="14.00" fill="#000000">MailSearchPipe </text>
</g>
<!-- PipesModule&#45;&gt;MailSearchPipe  -->
<g id="edge6" class="edge">
<title>PipesModule&#45;&gt;MailSearchPipe </title>
<path fill="none" stroke="#000000" stroke-dasharray="5,2" d="M235.9164,-180C266.4898,-180 301.4308,-180 301.4308,-180 301.4308,-180 301.4308,-205.7181 301.4308,-205.7181"/>
<polygon fill="#000000" stroke="#000000" points="297.9309,-205.718 301.4308,-215.7181 304.9309,-205.7181 297.9309,-205.718"/>
</g>
<!-- ProfilePicturePipe  -->
<g id="node8" class="node">
<title>ProfilePicturePipe </title>
<polygon fill="#fb8072" stroke="#000000" points="246.1411,-252 123.8589,-252 123.8589,-216 246.1411,-216 246.1411,-252"/>
<text text-anchor="middle" x="185" y="-229.8" font-family="Times,serif" font-size="14.00" fill="#000000">ProfilePicturePipe </text>
</g>
<!-- PipesModule&#45;&gt;ProfilePicturePipe  -->
<g id="edge7" class="edge">
<title>PipesModule&#45;&gt;ProfilePicturePipe </title>
<path fill="none" stroke="#000000" stroke-dasharray="5,2" d="M191,-187.1061C191,-187.1061 191,-205.991 191,-205.991"/>
<polygon fill="#000000" stroke="#000000" points="187.5001,-205.9909 191,-215.991 194.5001,-205.991 187.5001,-205.9909"/>
</g>
<!-- SearchPipe  -->
<g id="node9" class="node">
<title>SearchPipe </title>
<polygon fill="#fb8072" stroke="#000000" points="106.4762,-252 23.5238,-252 23.5238,-216 106.4762,-216 106.4762,-252"/>
<text text-anchor="middle" x="65" y="-229.8" font-family="Times,serif" font-size="14.00" fill="#000000">SearchPipe </text>
</g>
<!-- PipesModule&#45;&gt;SearchPipe  -->
<g id="edge8" class="edge">
<title>PipesModule&#45;&gt;SearchPipe </title>
<path fill="none" stroke="#000000" stroke-dasharray="5,2" d="M146.0366,-175C107.1336,-175 57.0875,-175 57.0875,-175 57.0875,-175 57.0875,-205.9775 57.0875,-205.9775"/>
<polygon fill="#000000" stroke="#000000" points="53.5876,-205.9774 57.0875,-215.9775 60.5876,-205.9775 53.5876,-205.9774"/>
</g>
</g>
</svg>
