<?xml version="1.0" encoding="UTF-8" standalone="no"?>
<!DOCTYPE svg PUBLIC "-//W3C//DTD SVG 1.1//EN"
 "http://www.w3.org/Graphics/SVG/1.1/DTD/svg11.dtd">
<!-- Generated by graphviz version 2.40.1 (20161225.0304)
 -->
<!-- Title: dependencies Pages: 1 -->
<svg width="1399pt" height="211pt"
 viewBox="0.00 0.00 1399.00 211.00" xmlns="http://www.w3.org/2000/svg" xmlns:xlink="http://www.w3.org/1999/xlink">
<g id="graph0" class="graph" transform="scale(1 1) rotate(0) translate(4 207)">
<title>dependencies</title>
<polygon fill="#ffffff" stroke="transparent" points="-4,4 -4,-207 1395,-207 1395,4 -4,4"/>
<text text-anchor="start" x="674.5091" y="-42.4" font-family="sans-serif" font-weight="bold" font-size="14.00" fill="#000000">Legend</text>
<polygon fill="#ffffb3" stroke="transparent" points="461.5,-10 461.5,-30 481.5,-30 481.5,-10 461.5,-10"/>
<text text-anchor="start" x="485.129" y="-15.4" font-family="sans-serif" font-size="14.00" fill="#000000"> &#160;Declarations</text>
<polygon fill="#8dd3c7" stroke="transparent" points="574.5,-10 574.5,-30 594.5,-30 594.5,-10 574.5,-10"/>
<text text-anchor="start" x="598.2251" y="-15.4" font-family="sans-serif" font-size="14.00" fill="#000000"> &#160;Module</text>
<polygon fill="#80b1d3" stroke="transparent" points="660.5,-10 660.5,-30 680.5,-30 680.5,-10 660.5,-10"/>
<text text-anchor="start" x="684.2812" y="-15.4" font-family="sans-serif" font-size="14.00" fill="#000000"> &#160;Bootstrap</text>
<polygon fill="#fdb462" stroke="transparent" points="757.5,-10 757.5,-30 777.5,-30 777.5,-10 757.5,-10"/>
<text text-anchor="start" x="781.1732" y="-15.4" font-family="sans-serif" font-size="14.00" fill="#000000"> &#160;Providers</text>
<polygon fill="#fb8072" stroke="transparent" points="853.5,-10 853.5,-30 873.5,-30 873.5,-10 853.5,-10"/>
<text text-anchor="start" x="877.2258" y="-15.4" font-family="sans-serif" font-size="14.00" fill="#000000"> &#160;Exports</text>
<g id="clust1" class="cluster">
<title>cluster_AgencyModule</title>
<polygon fill="none" stroke="#000000" stroke-dasharray="1,5" points="8,-70 8,-195 1383,-195 1383,-70 8,-70"/>
</g>
<g id="clust2" class="cluster">
<title>cluster_AgencyModule_declarations</title>
<polygon fill="none" stroke="#000000" points="322,-78 322,-130 1375,-130 1375,-78 322,-78"/>
</g>
<g id="clust9" class="cluster">
<title>cluster_AgencyModule_imports</title>
<polygon fill="none" stroke="#000000" points="180,-78 180,-130 314,-130 314,-78 180,-78"/>
</g>
<g id="clust12" class="cluster">
<title>cluster_AgencyModule_providers</title>
<polygon fill="none" stroke="#000000" points="16,-78 16,-130 172,-130 172,-78 16,-78"/>
</g>
<!-- AgenciesAddComponent -->
<g id="node1" class="node">
<title>AgenciesAddComponent</title>
<polygon fill="#ffffb3" stroke="#000000" points="1366.5253,-122 1209.4747,-122 1209.4747,-86 1366.5253,-86 1366.5253,-122"/>
<text text-anchor="middle" x="1288" y="-99.8" font-family="Times,serif" font-size="14.00" fill="#000000">AgenciesAddComponent</text>
</g>
<!-- AgencyModule -->
<g id="node7" class="node">
<title>AgencyModule</title>
<polygon fill="#8dd3c7" stroke="#000000" points="724.5856,-187 721.5856,-191 700.5856,-191 697.5856,-187 621.4144,-187 621.4144,-151 724.5856,-151 724.5856,-187"/>
<text text-anchor="middle" x="673" y="-164.8" font-family="Times,serif" font-size="14.00" fill="#000000">AgencyModule</text>
</g>
<!-- AgenciesAddComponent&#45;&gt;AgencyModule -->
<g id="edge1" class="edge">
<title>AgenciesAddComponent&#45;&gt;AgencyModule</title>
<path fill="none" stroke="#000000" d="M1288,-122.2921C1288,-144.2057 1288,-178 1288,-178 1288,-178 734.6404,-178 734.6404,-178"/>
<polygon fill="#000000" stroke="#000000" points="734.6404,-174.5001 724.6404,-178 734.6403,-181.5001 734.6404,-174.5001"/>
</g>
<!-- AgenciesListComponent -->
<g id="node2" class="node">
<title>AgenciesListComponent</title>
<polygon fill="#ffffb3" stroke="#000000" points="1191.6965,-122 1036.3035,-122 1036.3035,-86 1191.6965,-86 1191.6965,-122"/>
<text text-anchor="middle" x="1114" y="-99.8" font-family="Times,serif" font-size="14.00" fill="#000000">AgenciesListComponent</text>
</g>
<!-- AgenciesListComponent&#45;&gt;AgencyModule -->
<g id="edge2" class="edge">
<title>AgenciesListComponent&#45;&gt;AgencyModule</title>
<path fill="none" stroke="#000000" d="M1114,-122.1061C1114,-141.3391 1114,-169 1114,-169 1114,-169 734.8851,-169 734.8851,-169"/>
<polygon fill="#000000" stroke="#000000" points="734.8851,-165.5001 724.8851,-169 734.8851,-172.5001 734.8851,-165.5001"/>
</g>
<!-- AgenciesListFilterComponent -->
<g id="node3" class="node">
<title>AgenciesListFilterComponent</title>
<polygon fill="#ffffb3" stroke="#000000" points="1018.5266,-122 833.4734,-122 833.4734,-86 1018.5266,-86 1018.5266,-122"/>
<text text-anchor="middle" x="926" y="-99.8" font-family="Times,serif" font-size="14.00" fill="#000000">AgenciesListFilterComponent</text>
</g>
<!-- AgenciesListFilterComponent&#45;&gt;AgencyModule -->
<g id="edge3" class="edge">
<title>AgenciesListFilterComponent&#45;&gt;AgencyModule</title>
<path fill="none" stroke="#000000" d="M926,-122.027C926,-138.3976 926,-160 926,-160 926,-160 734.8088,-160 734.8088,-160"/>
<polygon fill="#000000" stroke="#000000" points="734.8089,-156.5001 724.8088,-160 734.8088,-163.5001 734.8089,-156.5001"/>
</g>
<!-- AgencyComponent -->
<g id="node4" class="node">
<title>AgencyComponent</title>
<polygon fill="#ffffb3" stroke="#000000" points="815.3683,-122 690.6317,-122 690.6317,-86 815.3683,-86 815.3683,-122"/>
<text text-anchor="middle" x="753" y="-99.8" font-family="Times,serif" font-size="14.00" fill="#000000">AgencyComponent</text>
</g>
<!-- AgencyComponent&#45;&gt;AgencyModule -->
<g id="edge4" class="edge">
<title>AgencyComponent&#45;&gt;AgencyModule</title>
<path fill="none" stroke="#000000" d="M707.5544,-122.1061C707.5544,-122.1061 707.5544,-140.991 707.5544,-140.991"/>
<polygon fill="#000000" stroke="#000000" points="704.0544,-140.9909 707.5544,-150.991 711.0544,-140.991 704.0544,-140.9909"/>
</g>
<!-- AgencyDetailComponent -->
<g id="node5" class="node">
<title>AgencyDetailComponent</title>
<polygon fill="#ffffb3" stroke="#000000" points="672.5758,-122 513.4242,-122 513.4242,-86 672.5758,-86 672.5758,-122"/>
<text text-anchor="middle" x="593" y="-99.8" font-family="Times,serif" font-size="14.00" fill="#000000">AgencyDetailComponent</text>
</g>
<!-- AgencyDetailComponent&#45;&gt;AgencyModule -->
<g id="edge5" class="edge">
<title>AgencyDetailComponent&#45;&gt;AgencyModule</title>
<path fill="none" stroke="#000000" d="M646.9976,-122.1061C646.9976,-122.1061 646.9976,-140.991 646.9976,-140.991"/>
<polygon fill="#000000" stroke="#000000" points="643.4976,-140.9909 646.9976,-150.991 650.4976,-140.991 643.4976,-140.9909"/>
</g>
<!-- AgencyUpdateComponent -->
<g id="node6" class="node">
<title>AgencyUpdateComponent</title>
<polygon fill="#ffffb3" stroke="#000000" points="495.7949,-122 330.2051,-122 330.2051,-86 495.7949,-86 495.7949,-122"/>
<text text-anchor="middle" x="413" y="-99.8" font-family="Times,serif" font-size="14.00" fill="#000000">AgencyUpdateComponent</text>
</g>
<!-- AgencyUpdateComponent&#45;&gt;AgencyModule -->
<g id="edge6" class="edge">
<title>AgencyUpdateComponent&#45;&gt;AgencyModule</title>
<path fill="none" stroke="#000000" d="M413,-122.027C413,-138.3976 413,-160 413,-160 413,-160 611.3215,-160 611.3215,-160"/>
<polygon fill="#000000" stroke="#000000" points="611.3215,-163.5001 621.3215,-160 611.3215,-156.5001 611.3215,-163.5001"/>
</g>
<!-- DirectivesModule -->
<g id="node8" class="node">
<title>DirectivesModule</title>
<polygon fill="#8dd3c7" stroke="#000000" points="305.5772,-122 302.5772,-126 281.5772,-126 278.5772,-122 188.4228,-122 188.4228,-86 305.5772,-86 305.5772,-122"/>
<text text-anchor="middle" x="247" y="-99.8" font-family="Times,serif" font-size="14.00" fill="#000000">DirectivesModule</text>
</g>
<!-- DirectivesModule&#45;&gt;AgencyModule -->
<g id="edge7" class="edge">
<title>DirectivesModule&#45;&gt;AgencyModule</title>
<path fill="none" stroke="#000000" d="M247,-122.1061C247,-141.3391 247,-169 247,-169 247,-169 611.1899,-169 611.1899,-169"/>
<polygon fill="#000000" stroke="#000000" points="611.19,-172.5001 621.1899,-169 611.1899,-165.5001 611.19,-172.5001"/>
</g>
<!-- AgencyService -->
<g id="node9" class="node">
<title>AgencyService</title>
<ellipse fill="#fdb462" stroke="#000000" cx="94" cy="-104" rx="70.0442" ry="18"/>
<text text-anchor="middle" x="94" y="-99.8" font-family="Times,serif" font-size="14.00" fill="#000000">AgencyService</text>
</g>
<!-- AgencyService&#45;&gt;AgencyModule -->
<g id="edge8" class="edge">
<title>AgencyService&#45;&gt;AgencyModule</title>
<path fill="none" stroke="#000000" d="M94,-122.2921C94,-144.2057 94,-178 94,-178 94,-178 611.3631,-178 611.3631,-178"/>
<polygon fill="#000000" stroke="#000000" points="611.3631,-181.5001 621.3631,-178 611.3631,-174.5001 611.3631,-181.5001"/>
</g>
</g>
</svg>
