<?xml version="1.0" encoding="UTF-8" standalone="no"?>
<!DOCTYPE svg PUBLIC "-//W3C//DTD SVG 1.1//EN"
 "http://www.w3.org/Graphics/SVG/1.1/DTD/svg11.dtd">
<!-- Generated by graphviz version 2.40.1 (20161225.0304)
 -->
<!-- Title: dependencies Pages: 1 -->
<svg width="1282pt" height="211pt"
 viewBox="0.00 0.00 1282.00 211.00" xmlns="http://www.w3.org/2000/svg" xmlns:xlink="http://www.w3.org/1999/xlink">
<g id="graph0" class="graph" transform="scale(1 1) rotate(0) translate(4 207)">
<title>dependencies</title>
<polygon fill="#ffffff" stroke="transparent" points="-4,4 -4,-207 1278,-207 1278,4 -4,4"/>
<text text-anchor="start" x="616.0091" y="-42.4" font-family="sans-serif" font-weight="bold" font-size="14.00" fill="#000000">Legend</text>
<polygon fill="#ffffb3" stroke="transparent" points="403,-10 403,-30 423,-30 423,-10 403,-10"/>
<text text-anchor="start" x="426.629" y="-15.4" font-family="sans-serif" font-size="14.00" fill="#000000"> &#160;Declarations</text>
<polygon fill="#8dd3c7" stroke="transparent" points="516,-10 516,-30 536,-30 536,-10 516,-10"/>
<text text-anchor="start" x="539.7251" y="-15.4" font-family="sans-serif" font-size="14.00" fill="#000000"> &#160;Module</text>
<polygon fill="#80b1d3" stroke="transparent" points="602,-10 602,-30 622,-30 622,-10 602,-10"/>
<text text-anchor="start" x="625.7812" y="-15.4" font-family="sans-serif" font-size="14.00" fill="#000000"> &#160;Bootstrap</text>
<polygon fill="#fdb462" stroke="transparent" points="699,-10 699,-30 719,-30 719,-10 699,-10"/>
<text text-anchor="start" x="722.6732" y="-15.4" font-family="sans-serif" font-size="14.00" fill="#000000"> &#160;Providers</text>
<polygon fill="#fb8072" stroke="transparent" points="795,-10 795,-30 815,-30 815,-10 795,-10"/>
<text text-anchor="start" x="818.7258" y="-15.4" font-family="sans-serif" font-size="14.00" fill="#000000"> &#160;Exports</text>
<g id="clust1" class="cluster">
<title>cluster_CategoriasModule</title>
<polygon fill="none" stroke="#000000" stroke-dasharray="1,5" points="8,-70 8,-195 1266,-195 1266,-70 8,-70"/>
</g>
<g id="clust2" class="cluster">
<title>cluster_CategoriasModule_declarations</title>
<polygon fill="none" stroke="#000000" points="344,-78 344,-130 1258,-130 1258,-78 344,-78"/>
</g>
<g id="clust8" class="cluster">
<title>cluster_CategoriasModule_imports</title>
<polygon fill="none" stroke="#000000" points="202,-78 202,-130 336,-130 336,-78 202,-78"/>
</g>
<g id="clust11" class="cluster">
<title>cluster_CategoriasModule_providers</title>
<polygon fill="none" stroke="#000000" points="16,-78 16,-130 194,-130 194,-78 16,-78"/>
</g>
<!-- CategoriasAddComponent -->
<g id="node1" class="node">
<title>CategoriasAddComponent</title>
<polygon fill="#ffffb3" stroke="#000000" points="1249.8061,-122 1084.1939,-122 1084.1939,-86 1249.8061,-86 1249.8061,-122"/>
<text text-anchor="middle" x="1167" y="-99.8" font-family="Times,serif" font-size="14.00" fill="#000000">CategoriasAddComponent</text>
</g>
<!-- CategoriasModule -->
<g id="node6" class="node">
<title>CategoriasModule</title>
<polygon fill="#8dd3c7" stroke="#000000" points="692.9173,-187 689.9173,-191 668.9173,-191 665.9173,-187 573.0827,-187 573.0827,-151 692.9173,-151 692.9173,-187"/>
<text text-anchor="middle" x="633" y="-164.8" font-family="Times,serif" font-size="14.00" fill="#000000">CategoriasModule</text>
</g>
<!-- CategoriasAddComponent&#45;&gt;CategoriasModule -->
<g id="edge1" class="edge">
<title>CategoriasAddComponent&#45;&gt;CategoriasModule</title>
<path fill="none" stroke="#000000" d="M1167,-122.2921C1167,-144.2057 1167,-178 1167,-178 1167,-178 702.9602,-178 702.9602,-178"/>
<polygon fill="#000000" stroke="#000000" points="702.9602,-174.5001 692.9602,-178 702.9601,-181.5001 702.9602,-174.5001"/>
</g>
<!-- CategoriasComponent -->
<g id="node2" class="node">
<title>CategoriasComponent</title>
<polygon fill="#ffffb3" stroke="#000000" points="1066.6993,-122 925.3007,-122 925.3007,-86 1066.6993,-86 1066.6993,-122"/>
<text text-anchor="middle" x="996" y="-99.8" font-family="Times,serif" font-size="14.00" fill="#000000">CategoriasComponent</text>
</g>
<!-- CategoriasComponent&#45;&gt;CategoriasModule -->
<g id="edge2" class="edge">
<title>CategoriasComponent&#45;&gt;CategoriasModule</title>
<path fill="none" stroke="#000000" d="M996,-122.1061C996,-141.3391 996,-169 996,-169 996,-169 702.9421,-169 702.9421,-169"/>
<polygon fill="#000000" stroke="#000000" points="702.9421,-165.5001 692.9421,-169 702.942,-172.5001 702.9421,-165.5001"/>
</g>
<!-- CategoriasDetailComponent -->
<g id="node3" class="node">
<title>CategoriasDetailComponent</title>
<polygon fill="#ffffb3" stroke="#000000" points="907.9073,-122 732.0927,-122 732.0927,-86 907.9073,-86 907.9073,-122"/>
<text text-anchor="middle" x="820" y="-99.8" font-family="Times,serif" font-size="14.00" fill="#000000">CategoriasDetailComponent</text>
</g>
<!-- CategoriasDetailComponent&#45;&gt;CategoriasModule -->
<g id="edge3" class="edge">
<title>CategoriasDetailComponent&#45;&gt;CategoriasModule</title>
<path fill="none" stroke="#000000" d="M820,-122.027C820,-138.3976 820,-160 820,-160 820,-160 702.9396,-160 702.9396,-160"/>
<polygon fill="#000000" stroke="#000000" points="702.9396,-156.5001 692.9396,-160 702.9395,-163.5001 702.9396,-156.5001"/>
</g>
<!-- CategoriasListComponent -->
<g id="node4" class="node">
<title>CategoriasListComponent</title>
<polygon fill="#ffffb3" stroke="#000000" points="714.4776,-122 551.5224,-122 551.5224,-86 714.4776,-86 714.4776,-122"/>
<text text-anchor="middle" x="633" y="-99.8" font-family="Times,serif" font-size="14.00" fill="#000000">CategoriasListComponent</text>
</g>
<!-- CategoriasListComponent&#45;&gt;CategoriasModule -->
<g id="edge4" class="edge">
<title>CategoriasListComponent&#45;&gt;CategoriasModule</title>
<path fill="none" stroke="#000000" d="M633,-122.1061C633,-122.1061 633,-140.991 633,-140.991"/>
<polygon fill="#000000" stroke="#000000" points="629.5001,-140.9909 633,-150.991 636.5001,-140.991 629.5001,-140.9909"/>
</g>
<!-- CategoriasUpdateComponent -->
<g id="node5" class="node">
<title>CategoriasUpdateComponent</title>
<polygon fill="#ffffb3" stroke="#000000" points="533.626,-122 352.374,-122 352.374,-86 533.626,-86 533.626,-122"/>
<text text-anchor="middle" x="443" y="-99.8" font-family="Times,serif" font-size="14.00" fill="#000000">CategoriasUpdateComponent</text>
</g>
<!-- CategoriasUpdateComponent&#45;&gt;CategoriasModule -->
<g id="edge5" class="edge">
<title>CategoriasUpdateComponent&#45;&gt;CategoriasModule</title>
<path fill="none" stroke="#000000" d="M443,-122.027C443,-138.3976 443,-160 443,-160 443,-160 563.1436,-160 563.1436,-160"/>
<polygon fill="#000000" stroke="#000000" points="563.1436,-163.5001 573.1436,-160 563.1436,-156.5001 563.1436,-163.5001"/>
</g>
<!-- DirectivesModule -->
<g id="node7" class="node">
<title>DirectivesModule</title>
<polygon fill="#8dd3c7" stroke="#000000" points="327.5772,-122 324.5772,-126 303.5772,-126 300.5772,-122 210.4228,-122 210.4228,-86 327.5772,-86 327.5772,-122"/>
<text text-anchor="middle" x="269" y="-99.8" font-family="Times,serif" font-size="14.00" fill="#000000">DirectivesModule</text>
</g>
<!-- DirectivesModule&#45;&gt;CategoriasModule -->
<g id="edge6" class="edge">
<title>DirectivesModule&#45;&gt;CategoriasModule</title>
<path fill="none" stroke="#000000" d="M269,-122.1061C269,-141.3391 269,-169 269,-169 269,-169 562.8928,-169 562.8928,-169"/>
<polygon fill="#000000" stroke="#000000" points="562.8928,-172.5001 572.8928,-169 562.8928,-165.5001 562.8928,-172.5001"/>
</g>
<!-- CategoriasService -->
<g id="node8" class="node">
<title>CategoriasService</title>
<ellipse fill="#fdb462" stroke="#000000" cx="105" cy="-104" rx="81.0744" ry="18"/>
<text text-anchor="middle" x="105" y="-99.8" font-family="Times,serif" font-size="14.00" fill="#000000">CategoriasService</text>
</g>
<!-- CategoriasService&#45;&gt;CategoriasModule -->
<g id="edge7" class="edge">
<title>CategoriasService&#45;&gt;CategoriasModule</title>
<path fill="none" stroke="#000000" d="M105,-122.2921C105,-144.2057 105,-178 105,-178 105,-178 563.2021,-178 563.2021,-178"/>
<polygon fill="#000000" stroke="#000000" points="563.2022,-181.5001 573.2021,-178 563.2021,-174.5001 563.2022,-181.5001"/>
</g>
</g>
</svg>
