<?xml version="1.0" encoding="UTF-8" standalone="no"?>
<!DOCTYPE svg PUBLIC "-//W3C//DTD SVG 1.1//EN"
 "http://www.w3.org/Graphics/SVG/1.1/DTD/svg11.dtd">
<!-- Generated by graphviz version 2.40.1 (20161225.0304)
 -->
<!-- Title: dependencies Pages: 1 -->
<svg width="690pt" height="211pt"
 viewBox="0.00 0.00 690.00 211.00" xmlns="http://www.w3.org/2000/svg" xmlns:xlink="http://www.w3.org/1999/xlink">
<g id="graph0" class="graph" transform="scale(1 1) rotate(0) translate(4 207)">
<title>dependencies</title>
<polygon fill="#ffffff" stroke="transparent" points="-4,4 -4,-207 686,-207 686,4 -4,4"/>
<text text-anchor="start" x="320.0091" y="-42.4" font-family="sans-serif" font-weight="bold" font-size="14.00" fill="#000000">Legend</text>
<polygon fill="#ffffb3" stroke="transparent" points="107,-10 107,-30 127,-30 127,-10 107,-10"/>
<text text-anchor="start" x="130.629" y="-15.4" font-family="sans-serif" font-size="14.00" fill="#000000"> &#160;Declarations</text>
<polygon fill="#8dd3c7" stroke="transparent" points="220,-10 220,-30 240,-30 240,-10 220,-10"/>
<text text-anchor="start" x="243.7251" y="-15.4" font-family="sans-serif" font-size="14.00" fill="#000000"> &#160;Module</text>
<polygon fill="#80b1d3" stroke="transparent" points="306,-10 306,-30 326,-30 326,-10 306,-10"/>
<text text-anchor="start" x="329.7812" y="-15.4" font-family="sans-serif" font-size="14.00" fill="#000000"> &#160;Bootstrap</text>
<polygon fill="#fdb462" stroke="transparent" points="403,-10 403,-30 423,-30 423,-10 403,-10"/>
<text text-anchor="start" x="426.6732" y="-15.4" font-family="sans-serif" font-size="14.00" fill="#000000"> &#160;Providers</text>
<polygon fill="#fb8072" stroke="transparent" points="499,-10 499,-30 519,-30 519,-10 499,-10"/>
<text text-anchor="start" x="522.7258" y="-15.4" font-family="sans-serif" font-size="14.00" fill="#000000"> &#160;Exports</text>
<g id="clust1" class="cluster">
<title>cluster_MapsModule</title>
<polygon fill="none" stroke="#000000" stroke-dasharray="1,5" points="8,-70 8,-195 674,-195 674,-70 8,-70"/>
</g>
<g id="clust2" class="cluster">
<title>cluster_MapsModule_declarations</title>
<polygon fill="none" stroke="#000000" points="158,-78 158,-130 666,-130 666,-78 158,-78"/>
</g>
<g id="clust6" class="cluster">
<title>cluster_MapsModule_imports</title>
<polygon fill="none" stroke="#000000" points="16,-78 16,-130 150,-130 150,-78 16,-78"/>
</g>
<!-- GoogleMapsComponent -->
<g id="node1" class="node">
<title>GoogleMapsComponent</title>
<polygon fill="#ffffb3" stroke="#000000" points="657.6484,-122 504.3516,-122 504.3516,-86 657.6484,-86 657.6484,-122"/>
<text text-anchor="middle" x="581" y="-99.8" font-family="Times,serif" font-size="14.00" fill="#000000">GoogleMapsComponent</text>
</g>
<!-- MapsModule -->
<g id="node4" class="node">
<title>MapsModule</title>
<polygon fill="#8dd3c7" stroke="#000000" points="370.1543,-187 367.1543,-191 346.1543,-191 343.1543,-187 279.8457,-187 279.8457,-151 370.1543,-151 370.1543,-187"/>
<text text-anchor="middle" x="325" y="-164.8" font-family="Times,serif" font-size="14.00" fill="#000000">MapsModule</text>
</g>
<!-- GoogleMapsComponent&#45;&gt;MapsModule -->
<g id="edge1" class="edge">
<title>GoogleMapsComponent&#45;&gt;MapsModule</title>
<path fill="none" stroke="#000000" d="M581,-122.1061C581,-141.3391 581,-169 581,-169 581,-169 380.1784,-169 380.1784,-169"/>
<polygon fill="#000000" stroke="#000000" points="380.1784,-165.5001 370.1784,-169 380.1783,-172.5001 380.1784,-165.5001"/>
</g>
<!-- LeafletMapsComponent -->
<g id="node2" class="node">
<title>LeafletMapsComponent</title>
<polygon fill="#ffffb3" stroke="#000000" points="486.0744,-122 333.9256,-122 333.9256,-86 486.0744,-86 486.0744,-122"/>
<text text-anchor="middle" x="410" y="-99.8" font-family="Times,serif" font-size="14.00" fill="#000000">LeafletMapsComponent</text>
</g>
<!-- LeafletMapsComponent&#45;&gt;MapsModule -->
<g id="edge2" class="edge">
<title>LeafletMapsComponent&#45;&gt;MapsModule</title>
<path fill="none" stroke="#000000" d="M352.1448,-122.1061C352.1448,-122.1061 352.1448,-140.991 352.1448,-140.991"/>
<polygon fill="#000000" stroke="#000000" points="348.6449,-140.9909 352.1448,-150.991 355.6449,-140.991 348.6449,-140.9909"/>
</g>
<!-- VectorMapsComponent -->
<g id="node3" class="node">
<title>VectorMapsComponent</title>
<polygon fill="#ffffb3" stroke="#000000" points="316.024,-122 165.976,-122 165.976,-86 316.024,-86 316.024,-122"/>
<text text-anchor="middle" x="241" y="-99.8" font-family="Times,serif" font-size="14.00" fill="#000000">VectorMapsComponent</text>
</g>
<!-- VectorMapsComponent&#45;&gt;MapsModule -->
<g id="edge3" class="edge">
<title>VectorMapsComponent&#45;&gt;MapsModule</title>
<path fill="none" stroke="#000000" d="M297.9674,-122.1061C297.9674,-122.1061 297.9674,-140.991 297.9674,-140.991"/>
<polygon fill="#000000" stroke="#000000" points="294.4675,-140.9909 297.9674,-150.991 301.4675,-140.991 294.4675,-140.9909"/>
</g>
<!-- DirectivesModule -->
<g id="node5" class="node">
<title>DirectivesModule</title>
<polygon fill="#8dd3c7" stroke="#000000" points="141.5772,-122 138.5772,-126 117.5772,-126 114.5772,-122 24.4228,-122 24.4228,-86 141.5772,-86 141.5772,-122"/>
<text text-anchor="middle" x="83" y="-99.8" font-family="Times,serif" font-size="14.00" fill="#000000">DirectivesModule</text>
</g>
<!-- DirectivesModule&#45;&gt;MapsModule -->
<g id="edge4" class="edge">
<title>DirectivesModule&#45;&gt;MapsModule</title>
<path fill="none" stroke="#000000" d="M83,-122.1061C83,-141.3391 83,-169 83,-169 83,-169 269.7655,-169 269.7655,-169"/>
<polygon fill="#000000" stroke="#000000" points="269.7656,-172.5001 279.7655,-169 269.7655,-165.5001 269.7656,-172.5001"/>
</g>
</g>
</svg>
