<?xml version="1.0" encoding="UTF-8" standalone="no"?>
<!DOCTYPE svg PUBLIC "-//W3C//DTD SVG 1.1//EN"
 "http://www.w3.org/Graphics/SVG/1.1/DTD/svg11.dtd">
<!-- Generated by graphviz version 2.40.1 (20161225.0304)
 -->
<!-- Title: dependencies Pages: 1 -->
<svg width="1357pt" height="211pt"
 viewBox="0.00 0.00 1357.00 211.00" xmlns="http://www.w3.org/2000/svg" xmlns:xlink="http://www.w3.org/1999/xlink">
<g id="graph0" class="graph" transform="scale(1 1) rotate(0) translate(4 207)">
<title>dependencies</title>
<polygon fill="#ffffff" stroke="transparent" points="-4,4 -4,-207 1353,-207 1353,4 -4,4"/>
<text text-anchor="start" x="653.5091" y="-42.4" font-family="sans-serif" font-weight="bold" font-size="14.00" fill="#000000">Legend</text>
<polygon fill="#ffffb3" stroke="transparent" points="440.5,-10 440.5,-30 460.5,-30 460.5,-10 440.5,-10"/>
<text text-anchor="start" x="464.129" y="-15.4" font-family="sans-serif" font-size="14.00" fill="#000000"> &#160;Declarations</text>
<polygon fill="#8dd3c7" stroke="transparent" points="553.5,-10 553.5,-30 573.5,-30 573.5,-10 553.5,-10"/>
<text text-anchor="start" x="577.2251" y="-15.4" font-family="sans-serif" font-size="14.00" fill="#000000"> &#160;Module</text>
<polygon fill="#80b1d3" stroke="transparent" points="639.5,-10 639.5,-30 659.5,-30 659.5,-10 639.5,-10"/>
<text text-anchor="start" x="663.2812" y="-15.4" font-family="sans-serif" font-size="14.00" fill="#000000"> &#160;Bootstrap</text>
<polygon fill="#fdb462" stroke="transparent" points="736.5,-10 736.5,-30 756.5,-30 756.5,-10 736.5,-10"/>
<text text-anchor="start" x="760.1732" y="-15.4" font-family="sans-serif" font-size="14.00" fill="#000000"> &#160;Providers</text>
<polygon fill="#fb8072" stroke="transparent" points="832.5,-10 832.5,-30 852.5,-30 852.5,-10 832.5,-10"/>
<text text-anchor="start" x="856.2258" y="-15.4" font-family="sans-serif" font-size="14.00" fill="#000000"> &#160;Exports</text>
<g id="clust1" class="cluster">
<title>cluster_FormElementsModule</title>
<polygon fill="none" stroke="#000000" stroke-dasharray="1,5" points="8,-70 8,-195 1341,-195 1341,-70 8,-70"/>
</g>
<g id="clust2" class="cluster">
<title>cluster_FormElementsModule_declarations</title>
<polygon fill="none" stroke="#000000" points="158,-78 158,-130 1333,-130 1333,-78 158,-78"/>
</g>
<g id="clust10" class="cluster">
<title>cluster_FormElementsModule_imports</title>
<polygon fill="none" stroke="#000000" points="16,-78 16,-130 150,-130 150,-78 16,-78"/>
</g>
<!-- FileUploaderComponent -->
<g id="node1" class="node">
<title>FileUploaderComponent</title>
<polygon fill="#ffffb3" stroke="#000000" points="1324.6979,-122 1169.3021,-122 1169.3021,-86 1324.6979,-86 1324.6979,-122"/>
<text text-anchor="middle" x="1247" y="-99.8" font-family="Times,serif" font-size="14.00" fill="#000000">FileUploaderComponent</text>
</g>
<!-- FormElementsModule -->
<g id="node8" class="node">
<title>FormElementsModule</title>
<polygon fill="#8dd3c7" stroke="#000000" points="743.9818,-187 740.9818,-191 719.9818,-191 716.9818,-187 602.0182,-187 602.0182,-151 743.9818,-151 743.9818,-187"/>
<text text-anchor="middle" x="673" y="-164.8" font-family="Times,serif" font-size="14.00" fill="#000000">FormElementsModule</text>
</g>
<!-- FileUploaderComponent&#45;&gt;FormElementsModule -->
<g id="edge1" class="edge">
<title>FileUploaderComponent&#45;&gt;FormElementsModule</title>
<path fill="none" stroke="#000000" d="M1247,-122.2921C1247,-144.2057 1247,-178 1247,-178 1247,-178 754.2479,-178 754.2479,-178"/>
<polygon fill="#000000" stroke="#000000" points="754.2479,-174.5001 744.2479,-178 754.2479,-181.5001 754.2479,-174.5001"/>
</g>
<!-- ImageUploaderComponent -->
<g id="node2" class="node">
<title>ImageUploaderComponent</title>
<polygon fill="#ffffb3" stroke="#000000" points="1151.4003,-122 982.5997,-122 982.5997,-86 1151.4003,-86 1151.4003,-122"/>
<text text-anchor="middle" x="1067" y="-99.8" font-family="Times,serif" font-size="14.00" fill="#000000">ImageUploaderComponent</text>
</g>
<!-- ImageUploaderComponent&#45;&gt;FormElementsModule -->
<g id="edge2" class="edge">
<title>ImageUploaderComponent&#45;&gt;FormElementsModule</title>
<path fill="none" stroke="#000000" d="M1067,-122.1061C1067,-141.3391 1067,-169 1067,-169 1067,-169 754.3504,-169 754.3504,-169"/>
<polygon fill="#000000" stroke="#000000" points="754.3505,-165.5001 744.3504,-169 754.3504,-172.5001 754.3505,-165.5001"/>
</g>
<!-- InputsComponent -->
<g id="node3" class="node">
<title>InputsComponent</title>
<polygon fill="#ffffb3" stroke="#000000" points="965.3287,-122 848.6713,-122 848.6713,-86 965.3287,-86 965.3287,-122"/>
<text text-anchor="middle" x="907" y="-99.8" font-family="Times,serif" font-size="14.00" fill="#000000">InputsComponent</text>
</g>
<!-- InputsComponent&#45;&gt;FormElementsModule -->
<g id="edge3" class="edge">
<title>InputsComponent&#45;&gt;FormElementsModule</title>
<path fill="none" stroke="#000000" d="M907,-122.027C907,-138.3976 907,-160 907,-160 907,-160 754.1608,-160 754.1608,-160"/>
<polygon fill="#000000" stroke="#000000" points="754.1608,-156.5001 744.1608,-160 754.1608,-163.5001 754.1608,-156.5001"/>
</g>
<!-- LayoutsComponent -->
<g id="node4" class="node">
<title>LayoutsComponent</title>
<polygon fill="#ffffb3" stroke="#000000" points="831.4356,-122 704.5644,-122 704.5644,-86 831.4356,-86 831.4356,-122"/>
<text text-anchor="middle" x="768" y="-99.8" font-family="Times,serif" font-size="14.00" fill="#000000">LayoutsComponent</text>
</g>
<!-- LayoutsComponent&#45;&gt;FormElementsModule -->
<g id="edge4" class="edge">
<title>LayoutsComponent&#45;&gt;FormElementsModule</title>
<path fill="none" stroke="#000000" d="M724.3868,-122.1061C724.3868,-122.1061 724.3868,-140.991 724.3868,-140.991"/>
<polygon fill="#000000" stroke="#000000" points="720.8868,-140.9909 724.3868,-150.991 727.8868,-140.991 720.8868,-140.9909"/>
</g>
<!-- MultipleImageUploaderComponent -->
<g id="node5" class="node">
<title>MultipleImageUploaderComponent</title>
<polygon fill="#ffffb3" stroke="#000000" points="686.1217,-122 469.8783,-122 469.8783,-86 686.1217,-86 686.1217,-122"/>
<text text-anchor="middle" x="578" y="-99.8" font-family="Times,serif" font-size="14.00" fill="#000000">MultipleImageUploaderComponent</text>
</g>
<!-- MultipleImageUploaderComponent&#45;&gt;FormElementsModule -->
<g id="edge5" class="edge">
<title>MultipleImageUploaderComponent&#45;&gt;FormElementsModule</title>
<path fill="none" stroke="#000000" d="M644.1599,-122.1061C644.1599,-122.1061 644.1599,-140.991 644.1599,-140.991"/>
<polygon fill="#000000" stroke="#000000" points="640.66,-140.9909 644.1599,-150.991 647.66,-140.991 640.66,-140.9909"/>
</g>
<!-- ValidationsComponent -->
<g id="node6" class="node">
<title>ValidationsComponent</title>
<polygon fill="#ffffb3" stroke="#000000" points="451.8753,-122 306.1247,-122 306.1247,-86 451.8753,-86 451.8753,-122"/>
<text text-anchor="middle" x="379" y="-99.8" font-family="Times,serif" font-size="14.00" fill="#000000">ValidationsComponent</text>
</g>
<!-- ValidationsComponent&#45;&gt;FormElementsModule -->
<g id="edge6" class="edge">
<title>ValidationsComponent&#45;&gt;FormElementsModule</title>
<path fill="none" stroke="#000000" d="M379,-122.027C379,-138.3976 379,-160 379,-160 379,-160 591.8308,-160 591.8308,-160"/>
<polygon fill="#000000" stroke="#000000" points="591.8308,-163.5001 601.8308,-160 591.8308,-156.5001 591.8308,-163.5001"/>
</g>
<!-- WizardComponent -->
<g id="node7" class="node">
<title>WizardComponent</title>
<polygon fill="#ffffb3" stroke="#000000" points="288.0283,-122 165.9717,-122 165.9717,-86 288.0283,-86 288.0283,-122"/>
<text text-anchor="middle" x="227" y="-99.8" font-family="Times,serif" font-size="14.00" fill="#000000">WizardComponent</text>
</g>
<!-- WizardComponent&#45;&gt;FormElementsModule -->
<g id="edge7" class="edge">
<title>WizardComponent&#45;&gt;FormElementsModule</title>
<path fill="none" stroke="#000000" d="M227,-122.1061C227,-141.3391 227,-169 227,-169 227,-169 591.8368,-169 591.8368,-169"/>
<polygon fill="#000000" stroke="#000000" points="591.8368,-172.5001 601.8368,-169 591.8368,-165.5001 591.8368,-172.5001"/>
</g>
<!-- DirectivesModule -->
<g id="node9" class="node">
<title>DirectivesModule</title>
<polygon fill="#8dd3c7" stroke="#000000" points="141.5772,-122 138.5772,-126 117.5772,-126 114.5772,-122 24.4228,-122 24.4228,-86 141.5772,-86 141.5772,-122"/>
<text text-anchor="middle" x="83" y="-99.8" font-family="Times,serif" font-size="14.00" fill="#000000">DirectivesModule</text>
</g>
<!-- DirectivesModule&#45;&gt;FormElementsModule -->
<g id="edge8" class="edge">
<title>DirectivesModule&#45;&gt;FormElementsModule</title>
<path fill="none" stroke="#000000" d="M83,-122.2921C83,-144.2057 83,-178 83,-178 83,-178 591.8322,-178 591.8322,-178"/>
<polygon fill="#000000" stroke="#000000" points="591.8322,-181.5001 601.8322,-178 591.8322,-174.5001 591.8322,-181.5001"/>
</g>
</g>
</svg>
