<?xml version="1.0" encoding="UTF-8" standalone="no"?>
<!DOCTYPE svg PUBLIC "-//W3C//DTD SVG 1.1//EN"
 "http://www.w3.org/Graphics/SVG/1.1/DTD/svg11.dtd">
<!-- Generated by graphviz version 2.40.1 (20161225.0304)
 -->
<!-- Title: dependencies Pages: 1 -->
<svg width="689pt" height="284pt"
 viewBox="0.00 0.00 689.00 284.00" xmlns="http://www.w3.org/2000/svg" xmlns:xlink="http://www.w3.org/1999/xlink">
<g id="graph0" class="graph" transform="scale(1 1) rotate(0) translate(4 280)">
<title>dependencies</title>
<polygon fill="#ffffff" stroke="transparent" points="-4,4 -4,-280 685,-280 685,4 -4,4"/>
<text text-anchor="start" x="319.5091" y="-42.4" font-family="sans-serif" font-weight="bold" font-size="14.00" fill="#000000">Legend</text>
<polygon fill="#ffffb3" stroke="transparent" points="106.5,-10 106.5,-30 126.5,-30 126.5,-10 106.5,-10"/>
<text text-anchor="start" x="130.129" y="-15.4" font-family="sans-serif" font-size="14.00" fill="#000000"> &#160;Declarations</text>
<polygon fill="#8dd3c7" stroke="transparent" points="219.5,-10 219.5,-30 239.5,-30 239.5,-10 219.5,-10"/>
<text text-anchor="start" x="243.2251" y="-15.4" font-family="sans-serif" font-size="14.00" fill="#000000"> &#160;Module</text>
<polygon fill="#80b1d3" stroke="transparent" points="305.5,-10 305.5,-30 325.5,-30 325.5,-10 305.5,-10"/>
<text text-anchor="start" x="329.2812" y="-15.4" font-family="sans-serif" font-size="14.00" fill="#000000"> &#160;Bootstrap</text>
<polygon fill="#fdb462" stroke="transparent" points="402.5,-10 402.5,-30 422.5,-30 422.5,-10 402.5,-10"/>
<text text-anchor="start" x="426.1732" y="-15.4" font-family="sans-serif" font-size="14.00" fill="#000000"> &#160;Providers</text>
<polygon fill="#fb8072" stroke="transparent" points="498.5,-10 498.5,-30 518.5,-30 518.5,-10 498.5,-10"/>
<text text-anchor="start" x="522.2258" y="-15.4" font-family="sans-serif" font-size="14.00" fill="#000000"> &#160;Exports</text>
<g id="clust1" class="cluster">
<title>cluster_AppModule</title>
<polygon fill="none" stroke="#000000" stroke-dasharray="1,5" points="8,-70 8,-268 673,-268 673,-70 8,-70"/>
</g>
<g id="clust2" class="cluster">
<title>cluster_AppModule_declarations</title>
<polygon fill="none" stroke="#000000" points="415,-78 415,-130 665,-130 665,-78 415,-78"/>
</g>
<g id="clust5" class="cluster">
<title>cluster_AppModule_imports</title>
<polygon fill="none" stroke="#000000" points="293,-78 293,-130 407,-130 407,-78 293,-78"/>
</g>
<g id="clust7" class="cluster">
<title>cluster_AppModule_bootstrap</title>
<polygon fill="none" stroke="#000000" points="288,-208 288,-260 412,-260 412,-208 288,-208"/>
</g>
<g id="clust8" class="cluster">
<title>cluster_AppModule_providers</title>
<polygon fill="none" stroke="#000000" points="16,-78 16,-130 285,-130 285,-78 16,-78"/>
</g>
<!-- AppComponent -->
<g id="node1" class="node">
<title>AppComponent</title>
<polygon fill="#ffffb3" stroke="#000000" points="656.9399,-122 551.0601,-122 551.0601,-86 656.9399,-86 656.9399,-122"/>
<text text-anchor="middle" x="604" y="-99.8" font-family="Times,serif" font-size="14.00" fill="#000000">AppComponent</text>
</g>
<!-- AppModule -->
<g id="node3" class="node">
<title>AppModule</title>
<polygon fill="#8dd3c7" stroke="#000000" points="391.6571,-187 388.6571,-191 367.6571,-191 364.6571,-187 308.3429,-187 308.3429,-151 391.6571,-151 391.6571,-187"/>
<text text-anchor="middle" x="350" y="-164.8" font-family="Times,serif" font-size="14.00" fill="#000000">AppModule</text>
</g>
<!-- AppComponent&#45;&gt;AppModule -->
<g id="edge1" class="edge">
<title>AppComponent&#45;&gt;AppModule</title>
<path fill="none" stroke="#000000" d="M604,-122.2843C604,-143.3211 604,-175 604,-175 604,-175 401.6585,-175 401.6585,-175"/>
<polygon fill="#000000" stroke="#000000" points="401.6585,-171.5001 391.6585,-175 401.6585,-178.5001 401.6585,-171.5001"/>
</g>
<!-- ErrorComponent -->
<g id="node2" class="node">
<title>ErrorComponent</title>
<polygon fill="#ffffb3" stroke="#000000" points="533.3669,-122 422.6331,-122 422.6331,-86 533.3669,-86 533.3669,-122"/>
<text text-anchor="middle" x="478" y="-99.8" font-family="Times,serif" font-size="14.00" fill="#000000">ErrorComponent</text>
</g>
<!-- ErrorComponent&#45;&gt;AppModule -->
<g id="edge2" class="edge">
<title>ErrorComponent&#45;&gt;AppModule</title>
<path fill="none" stroke="#000000" d="M478,-122.0225C478,-139.3734 478,-163 478,-163 478,-163 401.912,-163 401.912,-163"/>
<polygon fill="#000000" stroke="#000000" points="401.912,-159.5001 391.912,-163 401.912,-166.5001 401.912,-159.5001"/>
</g>
<!-- AppComponent  -->
<g id="node5" class="node">
<title>AppComponent </title>
<polygon fill="#80b1d3" stroke="#000000" points="404.439,-252 295.561,-252 295.561,-216 404.439,-216 404.439,-252"/>
<text text-anchor="middle" x="350" y="-229.8" font-family="Times,serif" font-size="14.00" fill="#000000">AppComponent </text>
</g>
<!-- AppModule&#45;&gt;AppComponent  -->
<g id="edge4" class="edge">
<title>AppModule&#45;&gt;AppComponent </title>
<path fill="none" stroke="#000000" stroke-dasharray="1,5" d="M350,-187.1061C350,-187.1061 350,-205.991 350,-205.991"/>
<polygon fill="#000000" stroke="#000000" points="346.5001,-205.9909 350,-215.991 353.5001,-205.991 346.5001,-205.9909"/>
</g>
<!-- SharedModule -->
<g id="node4" class="node">
<title>SharedModule</title>
<polygon fill="#8dd3c7" stroke="#000000" points="399.4231,-122 396.4231,-126 375.4231,-126 372.4231,-122 300.5769,-122 300.5769,-86 399.4231,-86 399.4231,-122"/>
<text text-anchor="middle" x="350" y="-99.8" font-family="Times,serif" font-size="14.00" fill="#000000">SharedModule</text>
</g>
<!-- SharedModule&#45;&gt;AppModule -->
<g id="edge3" class="edge">
<title>SharedModule&#45;&gt;AppModule</title>
<path fill="none" stroke="#000000" d="M350,-122.1061C350,-122.1061 350,-140.991 350,-140.991"/>
<polygon fill="#000000" stroke="#000000" points="346.5001,-140.9909 350,-150.991 353.5001,-140.991 346.5001,-140.9909"/>
</g>
<!-- AppConfig -->
<g id="node6" class="node">
<title>AppConfig</title>
<ellipse fill="#fdb462" stroke="#000000" cx="223" cy="-104" rx="54.4778" ry="18"/>
<text text-anchor="middle" x="223" y="-99.8" font-family="Times,serif" font-size="14.00" fill="#000000">AppConfig</text>
</g>
<!-- AppConfig&#45;&gt;AppModule -->
<g id="edge5" class="edge">
<title>AppConfig&#45;&gt;AppModule</title>
<path fill="none" stroke="#000000" d="M223,-122.0225C223,-139.3734 223,-163 223,-163 223,-163 298.0635,-163 298.0635,-163"/>
<polygon fill="#000000" stroke="#000000" points="298.0635,-166.5001 308.0635,-163 298.0634,-159.5001 298.0635,-166.5001"/>
</g>
<!-- LoginService -->
<g id="node7" class="node">
<title>LoginService</title>
<ellipse fill="#fdb462" stroke="#000000" cx="87" cy="-104" rx="63.1209" ry="18"/>
<text text-anchor="middle" x="87" y="-99.8" font-family="Times,serif" font-size="14.00" fill="#000000">LoginService</text>
</g>
<!-- LoginService&#45;&gt;AppModule -->
<g id="edge6" class="edge">
<title>LoginService&#45;&gt;AppModule</title>
<path fill="none" stroke="#000000" d="M87,-122.2843C87,-143.3211 87,-175 87,-175 87,-175 298.3269,-175 298.3269,-175"/>
<polygon fill="#000000" stroke="#000000" points="298.3269,-178.5001 308.3269,-175 298.3268,-171.5001 298.3269,-178.5001"/>
</g>
</g>
</svg>
