<?xml version="1.0" encoding="UTF-8" standalone="no"?>
<!DOCTYPE svg PUBLIC "-//W3C//DTD SVG 1.1//EN"
 "http://www.w3.org/Graphics/SVG/1.1/DTD/svg11.dtd">
<!-- Generated by graphviz version 2.40.1 (20161225.0304)
 -->
<!-- Title: dependencies Pages: 1 -->
<svg width="1174pt" height="276pt"
 viewBox="0.00 0.00 1174.00 276.00" xmlns="http://www.w3.org/2000/svg" xmlns:xlink="http://www.w3.org/1999/xlink">
<g id="graph0" class="graph" transform="scale(1 1) rotate(0) translate(4 272)">
<title>dependencies</title>
<polygon fill="#ffffff" stroke="transparent" points="-4,4 -4,-272 1170,-272 1170,4 -4,4"/>
<text text-anchor="start" x="562.0091" y="-42.4" font-family="sans-serif" font-weight="bold" font-size="14.00" fill="#000000">Legend</text>
<polygon fill="#ffffb3" stroke="transparent" points="349,-10 349,-30 369,-30 369,-10 349,-10"/>
<text text-anchor="start" x="372.629" y="-15.4" font-family="sans-serif" font-size="14.00" fill="#000000"> &#160;Declarations</text>
<polygon fill="#8dd3c7" stroke="transparent" points="462,-10 462,-30 482,-30 482,-10 462,-10"/>
<text text-anchor="start" x="485.7251" y="-15.4" font-family="sans-serif" font-size="14.00" fill="#000000"> &#160;Module</text>
<polygon fill="#80b1d3" stroke="transparent" points="548,-10 548,-30 568,-30 568,-10 548,-10"/>
<text text-anchor="start" x="571.7812" y="-15.4" font-family="sans-serif" font-size="14.00" fill="#000000"> &#160;Bootstrap</text>
<polygon fill="#fdb462" stroke="transparent" points="645,-10 645,-30 665,-30 665,-10 645,-10"/>
<text text-anchor="start" x="668.6732" y="-15.4" font-family="sans-serif" font-size="14.00" fill="#000000"> &#160;Providers</text>
<polygon fill="#fb8072" stroke="transparent" points="741,-10 741,-30 761,-30 761,-10 741,-10"/>
<text text-anchor="start" x="764.7258" y="-15.4" font-family="sans-serif" font-size="14.00" fill="#000000"> &#160;Exports</text>
<g id="clust1" class="cluster">
<title>cluster_PagesModule</title>
<polygon fill="none" stroke="#000000" stroke-dasharray="1,5" points="8,-70 8,-260 1158,-260 1158,-70 8,-70"/>
</g>
<g id="clust2" class="cluster">
<title>cluster_PagesModule_declarations</title>
<polygon fill="none" stroke="#000000" points="158,-143 158,-195 1150,-195 1150,-143 158,-143"/>
</g>
<g id="clust8" class="cluster">
<title>cluster_PagesModule_PagesComponent_providers</title>
<polygon fill="none" stroke="#000000" points="306,-78 306,-130 416,-130 416,-78 306,-78"/>
</g>
<g id="clust10" class="cluster">
<title>cluster_PagesModule_imports</title>
<polygon fill="none" stroke="#000000" points="16,-143 16,-195 150,-195 150,-143 16,-143"/>
</g>
<!-- BackTopComponent -->
<g id="node1" class="node">
<title>BackTopComponent</title>
<polygon fill="#ffffb3" stroke="#000000" points="1142.1513,-187 1009.8487,-187 1009.8487,-151 1142.1513,-151 1142.1513,-187"/>
<text text-anchor="middle" x="1076" y="-164.8" font-family="Times,serif" font-size="14.00" fill="#000000">BackTopComponent</text>
</g>
<!-- PagesModule -->
<g id="node8" class="node">
<title>PagesModule</title>
<polygon fill="#8dd3c7" stroke="#000000" points="611.2064,-252 608.2064,-256 587.2064,-256 584.2064,-252 518.7936,-252 518.7936,-216 611.2064,-216 611.2064,-252"/>
<text text-anchor="middle" x="565" y="-229.8" font-family="Times,serif" font-size="14.00" fill="#000000">PagesModule</text>
</g>
<!-- BackTopComponent&#45;&gt;PagesModule -->
<g id="edge1" class="edge">
<title>BackTopComponent&#45;&gt;PagesModule</title>
<path fill="none" stroke="#000000" d="M1076,-187.2921C1076,-209.2057 1076,-243 1076,-243 1076,-243 621.2491,-243 621.2491,-243"/>
<polygon fill="#000000" stroke="#000000" points="621.2491,-239.5001 611.2491,-243 621.2491,-246.5001 621.2491,-239.5001"/>
</g>
<!-- BlankComponent -->
<g id="node2" class="node">
<title>BlankComponent</title>
<polygon fill="#ffffb3" stroke="#000000" points="991.2744,-187 876.7256,-187 876.7256,-151 991.2744,-151 991.2744,-187"/>
<text text-anchor="middle" x="934" y="-164.8" font-family="Times,serif" font-size="14.00" fill="#000000">BlankComponent</text>
</g>
<!-- BlankComponent&#45;&gt;PagesModule -->
<g id="edge2" class="edge">
<title>BlankComponent&#45;&gt;PagesModule</title>
<path fill="none" stroke="#000000" d="M934,-187.1061C934,-206.3391 934,-234 934,-234 934,-234 621.3605,-234 621.3605,-234"/>
<polygon fill="#000000" stroke="#000000" points="621.3605,-230.5001 611.3605,-234 621.3604,-237.5001 621.3605,-230.5001"/>
</g>
<!-- BreadcrumbComponent -->
<g id="node3" class="node">
<title>BreadcrumbComponent</title>
<polygon fill="#ffffb3" stroke="#000000" points="858.0253,-187 707.9747,-187 707.9747,-151 858.0253,-151 858.0253,-187"/>
<text text-anchor="middle" x="783" y="-164.8" font-family="Times,serif" font-size="14.00" fill="#000000">BreadcrumbComponent</text>
</g>
<!-- BreadcrumbComponent&#45;&gt;PagesModule -->
<g id="edge3" class="edge">
<title>BreadcrumbComponent&#45;&gt;PagesModule</title>
<path fill="none" stroke="#000000" d="M783,-187.027C783,-203.3976 783,-225 783,-225 783,-225 621.2322,-225 621.2322,-225"/>
<polygon fill="#000000" stroke="#000000" points="621.2322,-221.5001 611.2322,-225 621.2322,-228.5001 621.2322,-221.5001"/>
</g>
<!-- MenuComponent -->
<g id="node4" class="node">
<title>MenuComponent</title>
<polygon fill="#ffffb3" stroke="#000000" points="689.9916,-187 576.0084,-187 576.0084,-151 689.9916,-151 689.9916,-187"/>
<text text-anchor="middle" x="633" y="-164.8" font-family="Times,serif" font-size="14.00" fill="#000000">MenuComponent</text>
</g>
<!-- MenuComponent&#45;&gt;PagesModule -->
<g id="edge4" class="edge">
<title>MenuComponent&#45;&gt;PagesModule</title>
<path fill="none" stroke="#000000" d="M593.5537,-187.1061C593.5537,-187.1061 593.5537,-205.991 593.5537,-205.991"/>
<polygon fill="#000000" stroke="#000000" points="590.0537,-205.9909 593.5537,-215.991 597.0537,-205.991 590.0537,-205.9909"/>
</g>
<!-- NavbarComponent -->
<g id="node5" class="node">
<title>NavbarComponent</title>
<polygon fill="#ffffb3" stroke="#000000" points="558.0297,-187 435.9703,-187 435.9703,-151 558.0297,-151 558.0297,-187"/>
<text text-anchor="middle" x="497" y="-164.8" font-family="Times,serif" font-size="14.00" fill="#000000">NavbarComponent</text>
</g>
<!-- NavbarComponent&#45;&gt;PagesModule -->
<g id="edge5" class="edge">
<title>NavbarComponent&#45;&gt;PagesModule</title>
<path fill="none" stroke="#000000" d="M538.5807,-187.1061C538.5807,-187.1061 538.5807,-205.991 538.5807,-205.991"/>
<polygon fill="#000000" stroke="#000000" points="535.0807,-205.9909 538.5807,-215.991 542.0807,-205.991 535.0807,-205.9909"/>
</g>
<!-- PagesComponent -->
<g id="node6" class="node">
<title>PagesComponent</title>
<polygon fill="#ffffb3" stroke="#000000" points="417.9888,-187 304.0112,-187 304.0112,-151 417.9888,-151 417.9888,-187"/>
<text text-anchor="middle" x="361" y="-164.8" font-family="Times,serif" font-size="14.00" fill="#000000">PagesComponent</text>
</g>
<!-- PagesComponent&#45;&gt;PagesModule -->
<g id="edge6" class="edge">
<title>PagesComponent&#45;&gt;PagesModule</title>
<path fill="none" stroke="#000000" d="M361,-187.027C361,-203.3976 361,-225 361,-225 361,-225 508.7092,-225 508.7092,-225"/>
<polygon fill="#000000" stroke="#000000" points="508.7093,-228.5001 518.7092,-225 508.7092,-221.5001 508.7093,-228.5001"/>
</g>
<!-- SearchComponent -->
<g id="node7" class="node">
<title>SearchComponent</title>
<polygon fill="#ffffb3" stroke="#000000" points="285.9201,-187 166.0799,-187 166.0799,-151 285.9201,-151 285.9201,-187"/>
<text text-anchor="middle" x="226" y="-164.8" font-family="Times,serif" font-size="14.00" fill="#000000">SearchComponent</text>
</g>
<!-- SearchComponent&#45;&gt;PagesModule -->
<g id="edge8" class="edge">
<title>SearchComponent&#45;&gt;PagesModule</title>
<path fill="none" stroke="#000000" d="M226,-187.1061C226,-206.3391 226,-234 226,-234 226,-234 508.5743,-234 508.5743,-234"/>
<polygon fill="#000000" stroke="#000000" points="508.5743,-237.5001 518.5743,-234 508.5743,-230.5001 508.5743,-237.5001"/>
</g>
<!-- AppState -->
<g id="node9" class="node">
<title>AppState</title>
<ellipse fill="#fdb462" stroke="#000000" cx="361" cy="-104" rx="46.9477" ry="18"/>
<text text-anchor="middle" x="361" y="-99.8" font-family="Times,serif" font-size="14.00" fill="#000000">AppState</text>
</g>
<!-- AppState&#45;&gt;PagesComponent -->
<g id="edge7" class="edge">
<title>AppState&#45;&gt;PagesComponent</title>
<path fill="none" stroke="#000000" d="M361,-122.1061C361,-122.1061 361,-140.991 361,-140.991"/>
<polygon fill="#000000" stroke="#000000" points="357.5001,-140.9909 361,-150.991 364.5001,-140.991 357.5001,-140.9909"/>
</g>
<!-- DirectivesModule -->
<g id="node10" class="node">
<title>DirectivesModule</title>
<polygon fill="#8dd3c7" stroke="#000000" points="141.5772,-187 138.5772,-191 117.5772,-191 114.5772,-187 24.4228,-187 24.4228,-151 141.5772,-151 141.5772,-187"/>
<text text-anchor="middle" x="83" y="-164.8" font-family="Times,serif" font-size="14.00" fill="#000000">DirectivesModule</text>
</g>
<!-- DirectivesModule&#45;&gt;PagesModule -->
<g id="edge9" class="edge">
<title>DirectivesModule&#45;&gt;PagesModule</title>
<path fill="none" stroke="#000000" d="M83,-187.2921C83,-209.2057 83,-243 83,-243 83,-243 508.7838,-243 508.7838,-243"/>
<polygon fill="#000000" stroke="#000000" points="508.7838,-246.5001 518.7838,-243 508.7838,-239.5001 508.7838,-246.5001"/>
</g>
</g>
</svg>
