<?xml version="1.0" encoding="UTF-8" standalone="no"?>
<!DOCTYPE svg PUBLIC "-//W3C//DTD SVG 1.1//EN"
 "http://www.w3.org/Graphics/SVG/1.1/DTD/svg11.dtd">
<!-- Generated by graphviz version 2.40.1 (20161225.0304)
 -->
<!-- Title: dependencies Pages: 1 -->
<svg width="829pt" height="284pt"
 viewBox="0.00 0.00 829.00 284.00" xmlns="http://www.w3.org/2000/svg" xmlns:xlink="http://www.w3.org/1999/xlink">
<g id="graph0" class="graph" transform="scale(1 1) rotate(0) translate(4 280)">
<title>dependencies</title>
<polygon fill="#ffffff" stroke="transparent" points="-4,4 -4,-280 825,-280 825,4 -4,4"/>
<text text-anchor="start" x="389.5091" y="-42.4" font-family="sans-serif" font-weight="bold" font-size="14.00" fill="#000000">Legend</text>
<polygon fill="#ffffb3" stroke="transparent" points="176.5,-10 176.5,-30 196.5,-30 196.5,-10 176.5,-10"/>
<text text-anchor="start" x="200.129" y="-15.4" font-family="sans-serif" font-size="14.00" fill="#000000"> &#160;Declarations</text>
<polygon fill="#8dd3c7" stroke="transparent" points="289.5,-10 289.5,-30 309.5,-30 309.5,-10 289.5,-10"/>
<text text-anchor="start" x="313.2251" y="-15.4" font-family="sans-serif" font-size="14.00" fill="#000000"> &#160;Module</text>
<polygon fill="#80b1d3" stroke="transparent" points="375.5,-10 375.5,-30 395.5,-30 395.5,-10 375.5,-10"/>
<text text-anchor="start" x="399.2812" y="-15.4" font-family="sans-serif" font-size="14.00" fill="#000000"> &#160;Bootstrap</text>
<polygon fill="#fdb462" stroke="transparent" points="472.5,-10 472.5,-30 492.5,-30 492.5,-10 472.5,-10"/>
<text text-anchor="start" x="496.1732" y="-15.4" font-family="sans-serif" font-size="14.00" fill="#000000"> &#160;Providers</text>
<polygon fill="#fb8072" stroke="transparent" points="568.5,-10 568.5,-30 588.5,-30 588.5,-10 568.5,-10"/>
<text text-anchor="start" x="592.2258" y="-15.4" font-family="sans-serif" font-size="14.00" fill="#000000"> &#160;Exports</text>
<g id="clust1" class="cluster">
<title>cluster_DirectivesModule</title>
<polygon fill="none" stroke="#000000" stroke-dasharray="1,5" points="8,-70 8,-268 813,-268 813,-70 8,-70"/>
</g>
<g id="clust2" class="cluster">
<title>cluster_DirectivesModule_declarations</title>
<polygon fill="none" stroke="#000000" points="32,-78 32,-130 794,-130 794,-78 32,-78"/>
</g>
<g id="clust12" class="cluster">
<title>cluster_DirectivesModule_exports</title>
<polygon fill="none" stroke="#000000" points="16,-208 16,-260 805,-260 805,-208 16,-208"/>
</g>
<!-- Counter -->
<g id="node1" class="node">
<title>Counter</title>
<polygon fill="#ffffb3" stroke="#000000" points="785.6025,-122 724.3975,-122 724.3975,-86 785.6025,-86 785.6025,-122"/>
<text text-anchor="middle" x="755" y="-99.8" font-family="Times,serif" font-size="14.00" fill="#000000">Counter</text>
</g>
<!-- DirectivesModule -->
<g id="node9" class="node">
<title>DirectivesModule</title>
<polygon fill="#8dd3c7" stroke="#000000" points="398.5772,-187 395.5772,-191 374.5772,-191 371.5772,-187 281.4228,-187 281.4228,-151 398.5772,-151 398.5772,-187"/>
<text text-anchor="middle" x="340" y="-164.8" font-family="Times,serif" font-size="14.00" fill="#000000">DirectivesModule</text>
</g>
<!-- Counter&#45;&gt;DirectivesModule -->
<g id="edge1" class="edge">
<title>Counter&#45;&gt;DirectivesModule</title>
<path fill="none" stroke="#000000" d="M728.5738,-122.2222C728.5738,-140.8285 728.5738,-167 728.5738,-167 728.5738,-167 408.5941,-167 408.5941,-167"/>
<polygon fill="#000000" stroke="#000000" points="408.5942,-163.5001 398.5941,-167 408.5941,-170.5001 408.5942,-163.5001"/>
</g>
<!-- DropzoneUpload -->
<g id="node2" class="node">
<title>DropzoneUpload</title>
<polygon fill="#ffffb3" stroke="#000000" points="706.4089,-122 593.5911,-122 593.5911,-86 706.4089,-86 706.4089,-122"/>
<text text-anchor="middle" x="650" y="-99.8" font-family="Times,serif" font-size="14.00" fill="#000000">DropzoneUpload</text>
</g>
<!-- DropzoneUpload&#45;&gt;DirectivesModule -->
<g id="edge2" class="edge">
<title>DropzoneUpload&#45;&gt;DirectivesModule</title>
<path fill="none" stroke="#000000" d="M670.4847,-122.0336C670.4847,-139.0597 670.4847,-162 670.4847,-162 670.4847,-162 408.7032,-162 408.7032,-162"/>
<polygon fill="#000000" stroke="#000000" points="408.7033,-158.5001 398.7032,-162 408.7032,-165.5001 408.7033,-158.5001"/>
</g>
<!-- LiveTile -->
<g id="node3" class="node">
<title>LiveTile</title>
<polygon fill="#ffffb3" stroke="#000000" points="576.2065,-122 511.7935,-122 511.7935,-86 576.2065,-86 576.2065,-122"/>
<text text-anchor="middle" x="544" y="-99.8" font-family="Times,serif" font-size="14.00" fill="#000000">LiveTile</text>
</g>
<!-- LiveTile&#45;&gt;DirectivesModule -->
<g id="edge3" class="edge">
<title>LiveTile&#45;&gt;DirectivesModule</title>
<path fill="none" stroke="#000000" d="M555.1177,-122.2396C555.1177,-137.5706 555.1177,-157 555.1177,-157 555.1177,-157 408.7819,-157 408.7819,-157"/>
<polygon fill="#000000" stroke="#000000" points="408.7819,-153.5001 398.7819,-157 408.7818,-160.5001 408.7819,-153.5001"/>
</g>
<!-- ProgressAnimate -->
<g id="node4" class="node">
<title>ProgressAnimate</title>
<polygon fill="#ffffb3" stroke="#000000" points="494.416,-122 381.584,-122 381.584,-86 494.416,-86 494.416,-122"/>
<text text-anchor="middle" x="438" y="-99.8" font-family="Times,serif" font-size="14.00" fill="#000000">ProgressAnimate</text>
</g>
<!-- ProgressAnimate&#45;&gt;DirectivesModule -->
<g id="edge4" class="edge">
<title>ProgressAnimate&#45;&gt;DirectivesModule</title>
<path fill="none" stroke="#000000" d="M390.1655,-122.1061C390.1655,-122.1061 390.1655,-140.991 390.1655,-140.991"/>
<polygon fill="#000000" stroke="#000000" points="386.6656,-140.9909 390.1655,-150.991 393.6656,-140.991 386.6656,-140.9909"/>
</g>
<!-- Skycon -->
<g id="node5" class="node">
<title>Skycon</title>
<polygon fill="#ffffb3" stroke="#000000" points="363.9972,-122 306.0028,-122 306.0028,-86 363.9972,-86 363.9972,-122"/>
<text text-anchor="middle" x="335" y="-99.8" font-family="Times,serif" font-size="14.00" fill="#000000">Skycon</text>
</g>
<!-- Skycon&#45;&gt;DirectivesModule -->
<g id="edge5" class="edge">
<title>Skycon&#45;&gt;DirectivesModule</title>
<path fill="none" stroke="#000000" d="M335,-122.1061C335,-122.1061 335,-140.991 335,-140.991"/>
<polygon fill="#000000" stroke="#000000" points="331.5001,-140.9909 335,-150.991 338.5001,-140.991 331.5001,-140.9909"/>
</g>
<!-- SlimScroll -->
<g id="node6" class="node">
<title>SlimScroll</title>
<polygon fill="#ffffb3" stroke="#000000" points="287.8935,-122 212.1065,-122 212.1065,-86 287.8935,-86 287.8935,-122"/>
<text text-anchor="middle" x="250" y="-99.8" font-family="Times,serif" font-size="14.00" fill="#000000">SlimScroll</text>
</g>
<!-- SlimScroll&#45;&gt;DirectivesModule -->
<g id="edge6" class="edge">
<title>SlimScroll&#45;&gt;DirectivesModule</title>
<path fill="none" stroke="#000000" d="M287.917,-104C293.2583,-104 296.9741,-104 296.9741,-104 296.9741,-104 296.9741,-140.8939 296.9741,-140.8939"/>
<polygon fill="#000000" stroke="#000000" points="293.4741,-140.8938 296.9741,-150.8939 300.4741,-140.8939 293.4741,-140.8938"/>
</g>
<!-- UpperCase -->
<g id="node7" class="node">
<title>UpperCase</title>
<polygon fill="#ffffb3" stroke="#000000" points="194.1924,-122 115.8076,-122 115.8076,-86 194.1924,-86 194.1924,-122"/>
<text text-anchor="middle" x="155" y="-99.8" font-family="Times,serif" font-size="14.00" fill="#000000">UpperCase</text>
</g>
<!-- UpperCase&#45;&gt;DirectivesModule -->
<g id="edge7" class="edge">
<title>UpperCase&#45;&gt;DirectivesModule</title>
<path fill="none" stroke="#000000" d="M188.9711,-122.0091C188.9711,-138.0494 188.9711,-159 188.9711,-159 188.9711,-159 271.1758,-159 271.1758,-159"/>
<polygon fill="#000000" stroke="#000000" points="271.1759,-162.5001 281.1758,-159 271.1758,-155.5001 271.1759,-162.5001"/>
</g>
<!-- Widget -->
<g id="node8" class="node">
<title>Widget</title>
<polygon fill="#ffffb3" stroke="#000000" points="97.7108,-122 40.2892,-122 40.2892,-86 97.7108,-86 97.7108,-122"/>
<text text-anchor="middle" x="69" y="-99.8" font-family="Times,serif" font-size="14.00" fill="#000000">Widget</text>
</g>
<!-- Widget&#45;&gt;DirectivesModule -->
<g id="edge8" class="edge">
<title>Widget&#45;&gt;DirectivesModule</title>
<path fill="none" stroke="#000000" d="M90.9802,-122.2667C90.9802,-140.5552 90.9802,-166 90.9802,-166 90.9802,-166 271.3011,-166 271.3011,-166"/>
<polygon fill="#000000" stroke="#000000" points="271.3012,-169.5001 281.3011,-166 271.3011,-162.5001 271.3012,-169.5001"/>
</g>
<!-- Counter  -->
<g id="node10" class="node">
<title>Counter </title>
<polygon fill="#fb8072" stroke="#000000" points="797.1036,-252 732.8964,-252 732.8964,-216 797.1036,-216 797.1036,-252"/>
<text text-anchor="middle" x="765" y="-229.8" font-family="Times,serif" font-size="14.00" fill="#000000">Counter </text>
</g>
<!-- DirectivesModule&#45;&gt;Counter  -->
<g id="edge9" class="edge">
<title>DirectivesModule&#45;&gt;Counter </title>
<path fill="none" stroke="#000000" stroke-dasharray="5,2" d="M398.7189,-172C514.068,-172 759.125,-172 759.125,-172 759.125,-172 759.125,-205.7333 759.125,-205.7333"/>
<polygon fill="#000000" stroke="#000000" points="755.6251,-205.7333 759.125,-215.7333 762.6251,-205.7333 755.6251,-205.7333"/>
</g>
<!-- DropzoneUpload  -->
<g id="node11" class="node">
<title>DropzoneUpload </title>
<polygon fill="#fb8072" stroke="#000000" points="714.9082,-252 599.0918,-252 599.0918,-216 714.9082,-216 714.9082,-252"/>
<text text-anchor="middle" x="657" y="-229.8" font-family="Times,serif" font-size="14.00" fill="#000000">DropzoneUpload </text>
</g>
<!-- DirectivesModule&#45;&gt;DropzoneUpload  -->
<g id="edge10" class="edge">
<title>DirectivesModule&#45;&gt;DropzoneUpload </title>
<path fill="none" stroke="#000000" stroke-dasharray="5,2" d="M398.5886,-177C484.551,-177 634.7653,-177 634.7653,-177 634.7653,-177 634.7653,-205.9648 634.7653,-205.9648"/>
<polygon fill="#000000" stroke="#000000" points="631.2654,-205.9648 634.7653,-215.9648 638.2654,-205.9649 631.2654,-205.9648"/>
</g>
<!-- LiveTile  -->
<g id="node12" class="node">
<title>LiveTile </title>
<polygon fill="#fb8072" stroke="#000000" points="580.7068,-252 513.2932,-252 513.2932,-216 580.7068,-216 580.7068,-252"/>
<text text-anchor="middle" x="547" y="-229.8" font-family="Times,serif" font-size="14.00" fill="#000000">LiveTile </text>
</g>
<!-- DirectivesModule&#45;&gt;LiveTile  -->
<g id="edge11" class="edge">
<title>DirectivesModule&#45;&gt;LiveTile </title>
<path fill="none" stroke="#000000" stroke-dasharray="5,2" d="M398.7729,-182C455.9111,-182 534.1323,-182 534.1323,-182 534.1323,-182 534.1323,-205.8129 534.1323,-205.8129"/>
<polygon fill="#000000" stroke="#000000" points="530.6324,-205.8129 534.1323,-215.8129 537.6324,-205.813 530.6324,-205.8129"/>
</g>
<!-- ProgressAnimate  -->
<g id="node13" class="node">
<title>ProgressAnimate </title>
<polygon fill="#fb8072" stroke="#000000" points="494.9152,-252 379.0848,-252 379.0848,-216 494.9152,-216 494.9152,-252"/>
<text text-anchor="middle" x="437" y="-229.8" font-family="Times,serif" font-size="14.00" fill="#000000">ProgressAnimate </text>
</g>
<!-- DirectivesModule&#45;&gt;ProgressAnimate  -->
<g id="edge12" class="edge">
<title>DirectivesModule&#45;&gt;ProgressAnimate </title>
<path fill="none" stroke="#000000" stroke-dasharray="5,2" d="M388.7905,-187.1061C388.7905,-187.1061 388.7905,-205.991 388.7905,-205.991"/>
<polygon fill="#000000" stroke="#000000" points="385.2906,-205.9909 388.7905,-215.991 392.2906,-205.991 385.2906,-205.9909"/>
</g>
<!-- Skycon  -->
<g id="node14" class="node">
<title>Skycon </title>
<polygon fill="#fb8072" stroke="#000000" points="360.9992,-252 299.0008,-252 299.0008,-216 360.9992,-216 360.9992,-252"/>
<text text-anchor="middle" x="330" y="-229.8" font-family="Times,serif" font-size="14.00" fill="#000000">Skycon </text>
</g>
<!-- DirectivesModule&#45;&gt;Skycon  -->
<g id="edge13" class="edge">
<title>DirectivesModule&#45;&gt;Skycon </title>
<path fill="none" stroke="#000000" stroke-dasharray="5,2" d="M330,-187.1061C330,-187.1061 330,-205.991 330,-205.991"/>
<polygon fill="#000000" stroke="#000000" points="326.5001,-205.9909 330,-215.991 333.5001,-205.991 326.5001,-205.9909"/>
</g>
<!-- SlimScroll  -->
<g id="node15" class="node">
<title>SlimScroll </title>
<polygon fill="#fb8072" stroke="#000000" points="281.8944,-252 202.1056,-252 202.1056,-216 281.8944,-216 281.8944,-252"/>
<text text-anchor="middle" x="242" y="-229.8" font-family="Times,serif" font-size="14.00" fill="#000000">SlimScroll </text>
</g>
<!-- DirectivesModule&#45;&gt;SlimScroll  -->
<g id="edge14" class="edge">
<title>DirectivesModule&#45;&gt;SlimScroll </title>
<path fill="none" stroke="#000000" stroke-dasharray="5,2" d="M290.4741,-187.1061C290.4741,-206.3391 290.4741,-234 290.4741,-234 290.4741,-234 289.6297,-234 289.6297,-234"/>
<polygon fill="#000000" stroke="#000000" points="292.0306,-230.5001 282.0305,-234 292.0305,-237.5001 292.0306,-230.5001"/>
</g>
<!-- UpperCase  -->
<g id="node16" class="node">
<title>UpperCase </title>
<polygon fill="#fb8072" stroke="#000000" points="183.6928,-252 102.3072,-252 102.3072,-216 183.6928,-216 183.6928,-252"/>
<text text-anchor="middle" x="143" y="-229.8" font-family="Times,serif" font-size="14.00" fill="#000000">UpperCase </text>
</g>
<!-- DirectivesModule&#45;&gt;UpperCase  -->
<g id="edge15" class="edge">
<title>DirectivesModule&#45;&gt;UpperCase </title>
<path fill="none" stroke="#000000" stroke-dasharray="5,2" d="M281.4049,-180C225.5416,-180 149.875,-180 149.875,-180 149.875,-180 149.875,-205.7181 149.875,-205.7181"/>
<polygon fill="#000000" stroke="#000000" points="146.3751,-205.718 149.875,-215.7181 153.3751,-205.7181 146.3751,-205.718"/>
</g>
<!-- Widget  -->
<g id="node17" class="node">
<title>Widget </title>
<polygon fill="#fb8072" stroke="#000000" points="84.2111,-252 23.7889,-252 23.7889,-216 84.2111,-216 84.2111,-252"/>
<text text-anchor="middle" x="54" y="-229.8" font-family="Times,serif" font-size="14.00" fill="#000000">Widget </text>
</g>
<!-- DirectivesModule&#45;&gt;Widget  -->
<g id="edge16" class="edge">
<title>DirectivesModule&#45;&gt;Widget </title>
<path fill="none" stroke="#000000" stroke-dasharray="5,2" d="M281.1229,-173C199.6286,-173 62.375,-173 62.375,-173 62.375,-173 62.375,-205.698 62.375,-205.698"/>
<polygon fill="#000000" stroke="#000000" points="58.8751,-205.698 62.375,-215.698 65.8751,-205.698 58.8751,-205.698"/>
</g>
</g>
</svg>
